<?xml version="1.0" standalone="no"?>
<!DOCTYPE svg PUBLIC "-//W3C//DTD SVG 20010904//EN"
 "http://www.w3.org/TR/2001/REC-SVG-20010904/DTD/svg10.dtd">
<svg version="1.0" xmlns="http://www.w3.org/2000/svg"
 width="588.000000pt" height="432.000000pt" viewBox="0 0 588.000000 432.000000"
 preserveAspectRatio="xMidYMid meet">

<g transform="translate(0.000000,432.000000) scale(0.100000,-0.100000)"
fill="#000000" stroke="none">
<path d="M2933 4313 l2937 -3 0 -2150 0 -2150 -2937 -3 -2938 -2 2943 -3 2942
-2 0 2160 0 2160 -2942 -2 -2943 -3 2938 -2z"/>
<path d="M3376 2620 c-41 -13 -85 -57 -110 -110 -20 -43 -21 -63 -24 -394 -3
-317 -2 -350 14 -367 23 -26 59 -24 78 3 14 19 16 63 16 275 l0 253 89 0 c96
0 115 9 109 52 -3 22 -7 23 -100 26 l-98 3 0 40 c0 112 64 159 172 127 33 -10
41 -9 54 4 23 23 8 57 -31 74 -44 18 -133 26 -169 14z"/>
<path d="M466 2538 c-24 -34 -24 -732 0 -766 8 -12 22 -22 30 -22 12 0 14 36
14 225 0 246 4 268 56 317 16 15 42 32 57 37 67 26 176 0 210 -50 14 -20 19
-21 42 -11 43 20 104 14 152 -13 59 -35 84 -86 90 -189 3 -45 10 -87 16 -93 5
-8 33 -13 68 -13 l59 0 0 290 c0 276 -1 290 -19 300 -13 6 -154 10 -390 10
l-370 0 -15 -22z"/>
<path d="M1685 2391 c-76 -20 -131 -67 -164 -141 -19 -41 -21 -65 -21 -276 0
-166 3 -233 12 -242 18 -18 53 -15 71 6 15 16 17 48 17 233 0 189 2 218 19
249 57 108 215 108 272 0 16 -30 19 -58 19 -196 0 -143 2 -163 18 -177 22 -20
55 -22 70 -4 5 6 12 85 14 177 3 145 6 169 24 200 30 53 78 80 137 80 64 0
109 -28 136 -84 19 -39 21 -60 21 -253 0 -179 2 -214 16 -227 18 -19 38 -20
65 -6 18 10 19 23 19 229 0 168 -4 229 -16 270 -49 165 -275 227 -408 110
l-43 -38 -24 25 c-13 14 -41 35 -62 45 -42 22 -145 33 -192 20z"/>
<path d="M2581 2376 c-9 -11 -11 -81 -9 -258 3 -238 4 -244 28 -287 32 -56 68
-83 122 -91 101 -14 210 25 265 95 l28 35 10 -52 c8 -43 16 -55 38 -66 15 -7
32 -10 37 -7 6 4 10 117 10 303 0 253 -2 301 -16 320 -18 26 -46 28 -68 6 -13
-13 -16 -46 -16 -205 0 -167 -2 -194 -19 -227 -25 -49 -56 -76 -115 -103 -92
-40 -172 -5 -195 86 -6 24 -11 131 -11 239 0 164 -3 197 -16 210 -19 20 -58
21 -73 2z"/>
<path d="M3762 2375 c-71 -20 -92 -32 -92 -54 0 -37 27 -46 78 -28 70 25 161
22 203 -6 44 -29 69 -80 69 -141 0 -48 0 -48 -27 -41 -136 35 -271 19 -350
-41 -45 -34 -63 -73 -63 -134 0 -132 118 -216 266 -189 73 13 108 31 157 77
l37 36 0 -35 c0 -41 37 -83 67 -77 17 3 18 18 18 228 0 247 -5 277 -58 336
-16 20 -48 44 -70 55 -53 27 -165 34 -235 14z m236 -333 c19 -11 22 -21 22
-71 0 -53 -3 -61 -37 -94 -37 -38 -109 -67 -165 -67 -76 0 -138 56 -138 124 0
89 66 129 205 123 50 -2 100 -9 113 -15z"/>
<path d="M4435 2376 c-67 -21 -100 -43 -148 -96 -55 -61 -78 -126 -78 -218 0
-210 173 -358 375 -321 127 23 198 87 148 132 -25 23 -45 21 -88 -8 -109 -74
-233 -43 -299 76 -26 46 -30 64 -29 124 0 51 6 81 21 110 40 77 114 125 190
125 42 0 111 -28 132 -53 29 -36 96 -8 89 36 -2 12 -22 36 -45 53 -66 50 -181
67 -268 40z"/>
<path d="M5028 2377 c-184 -52 -278 -269 -195 -451 72 -156 247 -227 411 -166
63 24 146 105 146 143 0 48 -59 66 -81 25 -37 -73 -133 -125 -210 -115 -90 12
-175 93 -186 176 l-6 41 201 0 c207 0 239 5 279 42 73 68 -6 229 -141 289 -61
26 -155 33 -218 16z m177 -86 c47 -21 105 -83 105 -112 0 -35 -19 -58 -58 -69
-39 -10 -334 -14 -345 -4 -9 9 19 90 43 124 30 42 112 80 170 80 25 0 63 -9
85 -19z"/>
<path d="M654 2206 c-17 -13 -19 -30 -22 -211 -3 -166 -1 -200 13 -221 l15
-24 281 0 c174 0 288 4 300 10 13 7 19 21 19 45 0 56 -18 65 -131 65 -135 0
-139 4 -139 143 0 113 -13 147 -54 147 -40 0 -56 -30 -56 -104 0 -58 -3 -70
-25 -91 -31 -31 -49 -31 -80 0 -23 22 -25 31 -25 124 0 92 -2 101 -22 115 -28
20 -49 20 -74 2z"/>
</g>
</svg>
