<?xml version="1.0" encoding="UTF-8" standalone="no"?>
<svg xmlns="http://www.w3.org/2000/svg" width="813" height="314" viewBox="0 0 813 314">
  <path d="M 192.00 278.50 L 138.00 278.50 L 136.50 272.00 L 143.50 269.00 L 145.50 265.00 L 145.50 257.00 L 137.50 233.00 L 132.00 223.50 L 71.00 223.50 L 61.50 252.00 L 61.50 265.00 L 66.00 270.50 L 70.50 272.00 L 70.50 278.00 L 24.00 278.50 L 22.50 277.00 L 22.50 272.00 L 34.50 262.00 L 43.50 246.00 L 42.50 245.00 L 66.50 189.00 L 67.50 183.00 L 107.00 84.50 L 112.50 86.00 L 177.50 255.00 L 184.50 267.00 L 193.50 273.00 L 192.00 278.50 Z M 299.00 281.50 L 288.00 275.50 L 279.00 264.50 L 277.00 264.50 L 263.00 277.50 L 250.00 281.50 L 232.00 280.50 L 214.00 273.50 L 204.50 266.00 L 192.50 248.00 L 188.50 232.00 L 188.50 211.00 L 192.50 196.00 L 199.50 184.00 L 213.00 171.50 L 225.00 165.50 L 237.00 162.50 L 259.00 162.50 L 276.50 168.00 L 275.50 120.00 L 269.00 111.50 L 262.50 109.00 L 262.50 104.00 L 289.00 92.50 L 299.00 84.50 L 305.00 84.50 L 304.50 249.00 L 308.00 256.50 L 313.00 258.50 L 321.00 256.50 L 324.50 261.00 L 308.00 272.50 L 299.00 281.50 Z M 579.00 278.50 L 531.50 278.00 L 531.50 272.00 L 538.00 269.50 L 541.50 266.00 L 542.50 261.00 L 542.50 161.00 L 539.50 119.00 L 534.00 110.50 L 526.50 108.00 L 526.50 101.00 L 551.00 93.50 L 564.00 84.50 L 571.50 85.00 L 570.50 263.00 L 574.00 269.50 L 580.50 272.00 L 579.00 278.50 Z M 126.50 209.00 L 127.50 208.00 L 117.50 181.00 L 114.50 177.00 L 114.50 173.00 L 101.00 141.50 L 76.50 208.00 L 126.50 209.00 Z M 394.00 281.50 L 372.00 280.50 L 351.00 272.50 L 336.50 260.00 L 330.50 251.00 L 324.50 236.00 L 323.50 212.00 L 327.50 198.00 L 334.50 185.00 L 351.00 169.50 L 369.00 162.50 L 390.00 162.50 L 409.00 169.50 L 420.50 179.00 L 428.50 194.00 L 430.00 209.50 L 351.50 210.00 L 352.50 227.00 L 356.50 237.00 L 362.50 245.00 L 374.00 254.50 L 387.00 259.50 L 406.00 259.50 L 423.00 251.50 L 427.50 254.00 L 426.50 258.00 L 412.00 277.50 L 394.00 281.50 Z M 482.00 281.50 L 458.00 279.50 L 449.00 276.50 L 442.50 272.00 L 441.50 248.00 L 443.00 246.50 L 452.00 246.50 L 455.50 255.00 L 462.00 263.50 L 476.00 269.50 L 484.00 268.50 L 490.00 265.50 L 496.50 255.00 L 493.00 245.50 L 460.00 229.50 L 449.00 221.50 L 442.50 212.00 L 439.50 198.00 L 444.50 180.00 L 456.00 168.50 L 473.00 162.50 L 495.00 162.50 L 518.50 169.00 L 518.50 194.00 L 516.00 195.50 L 508.00 194.50 L 503.50 183.00 L 498.00 177.50 L 490.00 174.50 L 477.00 174.50 L 468.50 180.00 L 465.50 186.00 L 465.50 195.00 L 467.50 199.00 L 475.00 205.50 L 508.00 220.50 L 517.50 233.00 L 519.50 247.00 L 517.50 258.00 L 512.50 267.00 L 507.00 272.50 L 496.00 278.50 L 482.00 281.50 Z M 674.00 281.50 L 659.00 276.50 L 651.00 268.50 L 642.00 275.50 L 631.00 280.50 L 611.00 280.50 L 596.00 273.50 L 588.50 265.00 L 584.50 253.00 L 585.50 239.00 L 590.50 228.00 L 601.00 217.50 L 611.00 212.50 L 628.00 208.50 L 648.00 209.50 L 649.50 208.00 L 646.50 188.00 L 642.00 182.50 L 635.00 179.50 L 618.00 181.50 L 614.00 183.50 L 605.00 193.50 L 597.00 193.50 L 596.50 168.00 L 598.00 166.50 L 616.00 162.50 L 647.00 162.50 L 661.00 166.50 L 674.50 179.00 L 678.50 194.00 L 677.50 255.00 L 680.00 259.50 L 690.00 259.50 L 694.50 265.00 L 674.00 281.50 Z M 740.00 281.50 L 721.00 280.50 L 705.00 275.50 L 701.50 272.00 L 700.50 248.00 L 702.00 246.50 L 711.00 246.50 L 715.50 257.00 L 720.00 262.50 L 727.00 267.50 L 735.00 269.50 L 748.00 266.50 L 754.50 258.00 L 755.50 251.00 L 748.00 242.50 L 731.00 235.50 L 710.00 223.50 L 700.50 210.00 L 698.50 197.00 L 699.50 189.00 L 703.50 180.00 L 715.00 168.50 L 731.00 162.50 L 753.00 162.50 L 777.50 169.00 L 777.50 193.00 L 773.00 195.50 L 768.00 195.50 L 764.50 186.00 L 758.00 178.50 L 745.00 173.50 L 736.00 174.50 L 730.00 177.50 L 724.50 185.00 L 723.50 192.00 L 726.50 199.00 L 735.00 206.50 L 762.00 217.50 L 772.50 226.00 L 777.50 235.00 L 778.50 249.00 L 773.50 264.00 L 765.00 273.50 L 752.00 279.50 L 740.00 281.50 Z M 398.50 197.00 L 398.50 188.00 L 393.50 179.00 L 379.00 172.50 L 372.00 172.50 L 362.00 176.50 L 353.50 187.00 L 351.50 197.00 L 398.50 197.00 Z M 261.50 263.00 L 271.00 259.50 L 276.50 255.00 L 276.50 197.00 L 271.50 184.00 L 266.00 178.50 L 257.00 174.50 L 243.00 174.50 L 234.00 178.50 L 223.50 192.00 L 218.50 211.00 L 219.50 225.00 L 226.50 245.00 L 236.00 256.50 L 246.00 262.50 L 261.50 263.00 Z M 640.50 263.00 L 650.50 259.00 L 649.50 221.00 L 636.00 218.50 L 625.00 221.50 L 616.50 228.00 L 613.50 233.00 L 612.50 246.00 L 615.50 254.00 L 622.00 260.50 L 628.00 263.50 L 640.50 263.00 Z" fill="#000000" fill-rule="evenodd" stroke="none"/>
</svg>
