<?xml version="1.0" standalone="no"?>
<!DOCTYPE svg PUBLIC "-//W3C//DTD SVG 20010904//EN"
 "http://www.w3.org/TR/2001/REC-SVG-20010904/DTD/svg10.dtd">
<svg version="1.0" xmlns="http://www.w3.org/2000/svg"
 width="275.000000pt" height="183.000000pt" viewBox="0 0 275.000000 183.000000"
 preserveAspectRatio="xMidYMid meet">

<g transform="translate(0.000000,183.000000) scale(0.100000,-0.100000)"
fill="#000000" stroke="none">
<path d="M371 1140 c-53 -13 -79 -31 -96 -65 -26 -56 -21 -65 34 -65 41 0 51
4 56 20 8 27 70 38 104 19 18 -10 27 -25 29 -47 l3 -32 -76 0 c-122 0 -185
-41 -185 -122 0 -91 52 -129 179 -129 85 0 134 15 166 51 18 20 20 36 20 154
0 148 -10 176 -69 201 -44 19 -123 26 -165 15z m129 -279 c0 -37 -31 -61 -78
-61 -45 0 -72 16 -72 43 0 37 19 47 87 47 l63 0 0 -29z"/>
<path d="M767 1140 c-79 -15 -107 -47 -107 -119 0 -57 28 -84 130 -127 118
-49 139 -74 71 -87 -46 -10 -103 3 -109 25 -3 14 -14 18 -53 18 -43 0 -49 -3
-49 -20 0 -38 30 -81 67 -96 40 -17 175 -20 215 -5 42 16 68 58 68 110 -1 71
-27 94 -157 142 -91 33 -106 60 -43 74 43 9 88 -3 95 -26 5 -15 16 -19 56 -19
l51 0 -7 33 c-17 82 -108 121 -228 97z"/>
<path d="M1308 1141 c-71 -15 -108 -55 -108 -117 0 -63 34 -89 203 -158 27
-11 38 -21 35 -33 -7 -37 -118 -39 -141 -2 -9 14 -24 19 -60 19 -47 0 -47 0
-41 -27 19 -79 59 -103 172 -103 106 0 147 16 168 67 20 46 13 98 -17 129 -12
13 -64 40 -116 60 -57 22 -93 42 -93 50 0 39 110 42 130 4 8 -15 21 -20 55
-20 39 0 45 3 45 20 0 34 -28 79 -59 95 -36 18 -123 26 -173 16z"/>
<path d="M1721 1140 c-53 -13 -79 -30 -96 -65 -25 -55 -21 -65 30 -65 34 0 50
6 69 25 46 46 126 23 126 -36 l0 -29 -75 0 c-122 0 -185 -41 -185 -122 0 -91
51 -128 179 -128 88 0 134 14 166 50 18 20 20 36 20 154 0 145 -8 172 -63 200
-35 18 -128 27 -171 16z m129 -277 c0 -40 -27 -63 -72 -63 -51 0 -78 15 -78
43 0 37 19 47 87 47 62 0 63 -1 63 -27z"/>
<path d="M1044 1127 c-2 -7 -3 -100 -2 -207 l3 -195 53 -3 52 -3 0 210 0 211
-50 0 c-32 0 -52 -5 -56 -13z"/>
<path d="M2143 1122 c19 -21 47 -85 47 -107 0 -12 -13 -15 -60 -15 l-60 0 0
-70 0 -70 60 0 c47 0 60 -3 60 -15 0 -22 -28 -86 -47 -107 -15 -17 -13 -18 54
-18 87 0 116 19 136 88 l14 47 57 3 56 3 0 69 0 69 -56 3 -57 3 -14 47 c-20
69 -49 88 -136 88 -67 0 -69 -1 -54 -18z"/>
</g>
</svg>
