<?xml version="1.0" standalone="no"?>
<!DOCTYPE svg PUBLIC "-//W3C//DTD SVG 20010904//EN"
 "http://www.w3.org/TR/2001/REC-SVG-20010904/DTD/svg10.dtd">
<svg version="1.0" xmlns="http://www.w3.org/2000/svg"
 width="269.000000pt" height="106.000000pt" viewBox="0 0 269.000000 106.000000"
 preserveAspectRatio="xMidYMid meet">

<g transform="translate(0.000000,106.000000) scale(0.100000,-0.100000)"
fill="#000000" stroke="none">
<path d="M377 1043 c-13 -12 -7 -23 13 -23 13 0 18 5 14 15 -7 16 -17 19 -27
8z"/>
<path d="M302 1004 c-7 -7 -25 -11 -42 -9 -16 2 -30 -1 -30 -6 0 -5 -11 -11
-25 -15 -24 -6 -29 -22 -10 -36 6 -5 5 -8 -4 -8 -11 0 -11 -3 -1 -15 6 -8 8
-20 4 -26 -4 -7 -3 -9 3 -6 6 4 13 -2 16 -13 3 -13 11 -18 20 -14 8 3 18 0 23
-7 5 -8 3 -10 -5 -4 -10 6 -11 3 -2 -14 7 -11 19 -21 29 -21 15 0 15 -2 2 -10
-12 -7 -8 -10 14 -10 24 0 27 2 16 15 -7 8 -22 15 -33 15 -11 0 -17 3 -13 8
11 10 30 9 38 -3 4 -5 43 -11 86 -11 61 -2 79 1 79 12 0 8 -4 14 -8 14 -5 0
-6 7 -3 15 10 26 21 16 20 -17 -1 -25 -7 -34 -26 -39 -22 -6 -21 -7 10 -8 29
0 41 6 68 39 17 21 32 43 32 49 0 6 5 11 11 11 5 0 7 -5 3 -12 -4 -6 -3 -9 2
-6 11 7 11 64 0 96 -4 12 -11 20 -16 17 -5 -3 -11 -1 -14 4 -4 5 -18 8 -32 6
-14 -1 -28 3 -30 9 -6 16 -166 16 -182 0z m65 -41 c-2 -38 -17 -63 -36 -63
-14 0 -22 16 -28 52 -5 34 8 48 44 48 20 0 23 -5 20 -37z m102 25 c18 -11 18
-14 3 -45 -9 -18 -19 -33 -24 -33 -4 0 -8 -8 -7 -17 0 -11 3 -13 6 -5 2 6 9 9
15 6 14 -9 -28 -35 -46 -28 -9 3 -13 10 -10 15 3 5 1 9 -4 9 -5 0 -4 17 3 38
8 21 9 38 4 40 -5 2 -9 10 -9 18 0 17 43 19 69 2z m-195 -40 c-1 -18 -5 -40
-9 -49 -3 -10 -2 -20 3 -23 6 -3 13 1 16 10 4 10 2 13 -7 8 -7 -5 -5 0 3 11
14 16 15 16 18 1 2 -9 8 -13 14 -10 7 5 8 2 3 -6 -6 -9 -2 -10 16 -5 13 4 26
12 27 16 2 5 8 7 12 4 5 -3 6 -13 3 -22 -5 -12 -3 -14 8 -8 8 4 12 6 9 2 -3
-3 -8 -5 -11 -4 -12 4 -38 -26 -32 -37 3 -6 0 -6 -7 1 -12 11 -11 16 6 29 17
14 17 15 1 10 -10 -3 -23 -6 -28 -6 -6 0 -7 -4 -4 -10 9 -14 -8 -13 -23 2 -9
9 -12 9 -12 -2 0 -9 -7 -6 -20 8 -21 23 -36 30 -25 12 3 -5 1 -10 -6 -10 -7 0
-10 13 -7 34 2 19 0 32 -4 30 -13 -8 -9 21 4 34 7 7 21 12 33 12 17 0 20 -6
19 -32z m276 24 c21 -10 27 -47 6 -39 -14 6 -15 3 -6 -14 8 -14 8 -24 1 -33
-6 -7 -7 -17 -3 -21 4 -5 2 -5 -5 -1 -7 4 -9 14 -6 23 5 11 3 14 -6 9 -7 -5
-10 -18 -7 -30 4 -15 -1 -26 -14 -34 -23 -14 -27 -4 -5 12 13 10 13 14 0 40
-20 37 -19 56 3 57 15 1 16 2 0 6 -10 2 -15 10 -11 19 5 15 28 17 53 6z m-47
-104 c4 -12 2 -18 -7 -18 -7 0 -13 6 -13 13 0 6 -4 26 -8 42 l-7 30 14 -25 c8
-14 17 -33 21 -42z m-68 -28 c-3 -5 -10 -10 -16 -10 -5 0 -9 5 -9 10 0 6 7 10
16 10 8 0 12 -4 9 -10z"/>
<path d="M410 903 c0 -4 5 -15 10 -23 8 -13 10 -13 10 2 0 9 -4 20 -10 23 -5
3 -10 3 -10 -2z"/>
<path d="M290 880 c0 -5 5 -10 11 -10 5 0 7 5 4 10 -3 6 -8 10 -11 10 -2 0 -4
-4 -4 -10z"/>
<path d="M810 920 c0 -27 3 -50 8 -50 4 0 6 19 5 43 l-3 42 15 -30 c8 -16 14
-36 15 -43 0 -27 25 -4 37 34 l11 39 1 -42 c1 -61 16 -54 16 7 0 62 -18 66
-38 8 l-14 -43 -13 43 c-19 59 -40 55 -40 -8z"/>
<path d="M940 920 c0 -27 3 -50 8 -50 4 0 7 23 7 50 0 28 -3 50 -7 50 -5 0 -8
-22 -8 -50z"/>
<path d="M980 920 c0 -27 3 -50 8 -50 4 0 6 19 4 43 l-3 42 20 -25 c11 -14 23
-33 27 -42 12 -37 29 -18 29 32 0 58 -12 67 -17 13 l-3 -38 -23 38 c-13 20
-28 37 -33 37 -5 0 -9 -22 -9 -50z"/>
<path d="M1085 920 c0 -27 3 -50 8 -50 4 0 7 23 7 50 0 28 -3 50 -7 50 -5 0
-8 -22 -8 -50z"/>
<path d="M1127 957 c-6 -16 10 -37 29 -37 6 0 17 -7 24 -15 10 -12 9 -16 -5
-21 -9 -4 -21 -2 -28 5 -17 17 -31 13 -17 -5 8 -8 25 -14 39 -12 36 4 35 39
-2 56 -22 10 -26 17 -18 25 9 9 17 8 32 -2 18 -10 20 -10 17 1 -6 19 -64 23
-71 5z"/>
<path d="M1228 963 c19 -4 22 -11 22 -49 0 -24 3 -44 8 -44 4 0 6 18 4 40 -4
34 -1 41 19 49 20 8 15 10 -26 9 -27 0 -40 -3 -27 -5z"/>
<path d="M1310 920 l0 -50 43 1 42 2 -35 6 c-44 8 -47 33 -5 42 l30 6 -28 4
c-38 6 -35 23 5 30 32 6 31 6 -9 8 l-43 1 0 -50z"/>
<path d="M1410 920 c0 -27 4 -50 9 -50 5 0 7 9 4 20 -4 15 0 20 15 20 12 0 26
-9 32 -20 6 -11 16 -20 22 -20 6 0 3 9 -7 20 -16 17 -16 21 -2 35 25 25 10 45
-34 45 l-39 0 0 -50z m68 23 c2 -9 -7 -13 -27 -13 -30 0 -39 9 -24 24 11 10
46 3 51 -11z"/>
<path d="M1515 920 c0 -27 3 -50 8 -50 4 0 7 23 7 50 0 28 -3 50 -7 50 -5 0
-8 -22 -8 -50z"/>
<path d="M1560 949 c-26 -47 25 -100 69 -72 20 13 26 60 10 79 -18 22 -66 18
-79 -7z m70 -4 c15 -18 10 -45 -12 -59 -13 -8 -22 -6 -37 8 -25 23 -26 30 -5
50 19 20 38 20 54 1z"/>
<path d="M1705 920 c0 -49 0 -50 31 -50 33 0 48 12 56 46 9 35 -9 54 -50 54
l-37 0 0 -50z m69 18 c14 -23 -3 -52 -33 -56 -19 -3 -21 1 -21 38 0 37 2 41
21 38 12 -2 27 -11 33 -20z"/>
<path d="M1810 920 l0 -50 43 1 42 2 -35 6 c-44 8 -47 33 -5 42 l30 6 -28 4
c-38 6 -35 23 5 30 32 6 31 6 -9 8 l-43 1 0 -50z"/>
<path d="M1950 920 l0 -51 37 3 c31 2 39 8 47 31 14 39 -2 61 -48 65 l-36 3 0
-51z m70 20 c15 -28 -4 -62 -33 -58 -22 3 -34 35 -23 64 8 21 44 17 56 -6z"/>
<path d="M2055 920 l0 -50 40 2 c37 1 37 2 8 5 -24 3 -33 9 -33 23 0 14 9 20
33 23 l32 4 -32 1 c-21 1 -33 7 -33 16 0 9 13 16 33 19 29 3 29 4 -8 5 l-40 2
0 -50z"/>
<path d="M2155 920 c0 -27 3 -50 8 -50 4 0 7 11 7 24 0 19 6 26 28 29 l27 4
-27 2 c-40 2 -36 29 5 34 29 3 29 4 -8 5 l-40 2 0 -50z"/>
<path d="M2240 920 l0 -50 43 1 42 2 -35 6 c-44 8 -47 33 -5 42 l30 6 -28 4
c-38 6 -35 23 5 30 32 6 31 6 -9 8 l-43 1 0 -50z"/>
<path d="M2340 920 c0 -27 3 -50 8 -50 4 0 6 19 4 43 l-3 42 20 -25 c11 -14
23 -33 27 -42 12 -37 29 -18 29 32 0 58 -12 67 -17 13 l-3 -38 -23 38 c-13 20
-28 37 -33 37 -5 0 -9 -22 -9 -50z"/>
<path d="M2447 957 c-6 -16 10 -37 29 -37 6 0 17 -7 24 -15 10 -12 9 -16 -5
-21 -9 -4 -21 -2 -28 5 -17 17 -31 13 -17 -5 8 -8 25 -14 39 -12 36 4 35 39
-2 56 -22 10 -26 17 -18 25 9 9 17 8 32 -2 18 -10 20 -10 17 1 -6 19 -64 23
-71 5z"/>
<path d="M2548 920 c-9 -27 -12 -50 -7 -50 5 0 9 7 9 15 0 21 47 19 59 -2 16
-27 13 -4 -5 44 -9 24 -22 43 -28 43 -7 0 -19 -22 -28 -50z m42 3 c0 -7 -7
-13 -16 -13 -11 0 -14 5 -10 16 3 9 6 21 6 27 0 16 20 -14 20 -30z"/>
<path d="M85 834 c-11 -8 -19 -17 -17 -19 7 -14 0 -18 -8 -5 -6 9 -10 10 -10
3 0 -6 4 -14 9 -17 4 -3 8 -43 7 -90 -1 -46 2 -82 6 -79 5 2 8 26 8 54 0 37 4
49 15 49 17 0 22 -65 5 -75 -5 -3 -10 -11 -10 -16 0 -28 29 23 33 57 l4 39 1
-42 c2 -40 4 -43 30 -42 24 2 25 2 4 6 -21 4 -23 9 -21 57 1 29 -1 58 -5 64
-4 7 -3 12 2 12 5 0 9 7 9 15 0 8 -4 12 -9 9 -4 -3 -8 0 -8 6 0 6 -4 9 -9 5
-5 -3 -11 1 -13 9 -3 13 -6 13 -23 0z m43 -71 c-10 -2 -28 -2 -40 0 -13 2 -5
4 17 4 22 1 32 -1 23 -4z"/>
<path d="M660 830 c-1 -14 -4 -19 -7 -12 -8 20 -33 14 -33 -8 0 -11 5 -20 11
-20 8 0 8 -4 1 -13 -7 -8 -7 -18 -2 -27 6 -8 10 -29 10 -47 0 -39 9 -65 21
-57 5 3 9 0 9 -5 0 -6 5 -11 11 -11 5 0 8 4 5 9 -4 5 -2 11 3 13 5 1 11 33 14
69 2 37 7 71 11 78 9 14 -2 33 -17 28 -7 -2 -17 3 -24 12 -11 14 -13 13 -13
-9z m28 -67 c-10 -2 -28 -2 -40 0 -13 2 -5 4 17 4 22 1 32 -1 23 -4z m-8 -68
c0 -24 -5 -35 -15 -35 -10 0 -15 11 -15 35 0 24 5 35 15 35 10 0 15 -11 15
-35z"/>
<path d="M1164 781 c-27 -12 -46 -30 -57 -54 -35 -74 -13 -120 90 -187 43 -28
90 -63 106 -78 71 -67 -7 -156 -107 -121 -44 15 -86 66 -86 105 0 13 -3 24 -7
24 -5 0 -8 -36 -8 -79 0 -71 2 -78 15 -66 13 12 23 12 69 -1 119 -35 222 25
215 124 -3 46 -30 76 -125 138 -110 72 -133 106 -105 149 49 75 142 44 180
-60 l15 -40 0 84 c1 72 -1 82 -12 67 -12 -17 -16 -17 -60 -2 -60 20 -73 20
-123 -3z"/>
<path d="M2003 739 c-149 -327 -185 -396 -211 -406 -23 -9 -14 -11 53 -11 68
0 76 2 53 11 -35 13 -36 37 -5 97 l22 45 92 3 91 3 21 -56 c27 -71 26 -71 -6
-89 -26 -14 -22 -15 72 -15 93 1 98 2 69 14 -35 15 -45 36 -144 285 -34 85
-65 162 -70 169 -6 11 -16 -3 -37 -50z m50 -151 l35 -88 -79 0 c-43 0 -79 2
-79 5 0 11 81 178 84 174 2 -2 20 -43 39 -91z"/>
<path d="M2404 781 c-27 -12 -46 -30 -57 -54 -35 -74 -13 -120 90 -187 43 -28
90 -63 106 -78 71 -67 -7 -156 -107 -121 -44 15 -86 66 -86 105 0 13 -3 24 -7
24 -5 0 -8 -36 -8 -79 0 -71 2 -78 15 -66 13 12 23 12 69 -1 119 -35 222 25
215 124 -3 46 -30 76 -125 138 -110 72 -133 106 -105 149 49 75 142 44 180
-60 l15 -40 0 84 c1 72 -1 82 -12 67 -12 -17 -16 -17 -60 -2 -60 20 -73 20
-123 -3z"/>
<path d="M192 612 c-2 -152 1 -190 14 -218 9 -19 19 -34 23 -34 3 0 6 45 6
100 0 55 -3 100 -7 100 -5 0 -8 -39 -8 -87 0 -163 -15 -72 -21 125 l-5 197 -2
-183z"/>
<path d="M392 720 c-2 -70 -4 -76 -28 -87 l-27 -12 6 39 c3 22 1 42 -4 45 -4
3 -6 12 -2 20 3 9 -1 15 -11 15 -9 0 -16 7 -16 15 0 8 -7 15 -15 15 -8 0 -15
-7 -15 -15 0 -8 -7 -15 -15 -15 -16 0 -19 -19 -16 -82 2 -24 -2 -38 -9 -38 -6
0 -10 -6 -8 -12 3 -7 26 -15 53 -18 46 -5 48 -6 32 -22 -14 -13 -17 -36 -17
-123 0 -81 -3 -106 -12 -102 -9 3 -13 34 -13 110 0 59 -3 107 -7 107 -5 0 -8
-49 -8 -109 0 -100 2 -110 20 -116 11 -3 28 -2 37 4 10 6 12 11 6 11 -10 0
-13 27 -13 100 0 55 3 100 8 100 18 0 33 -64 30 -128 -2 -41 1 -69 7 -69 6 0
9 28 7 69 -3 59 -1 68 13 68 15 0 17 -7 13 -45 -3 -25 -2 -45 3 -45 5 0 9 19
9 43 0 31 5 45 20 54 15 10 21 10 27 -1 4 -7 17 -18 28 -25 17 -10 16 -10 -10
-5 -16 4 -33 12 -37 18 -9 14 -15 -5 -22 -77 -4 -37 -3 -56 3 -52 6 3 8 13 5
23 -5 14 -2 13 13 -3 22 -25 81 -25 99 0 11 15 13 15 22 0 7 -14 11 -11 25 18
13 26 17 63 17 146 0 83 3 111 13 111 19 0 41 -40 28 -53 -6 -6 -10 -22 -10
-36 1 -25 2 -24 9 4 4 17 8 22 9 13 0 -9 4 -19 9 -22 4 -2 6 13 4 35 -2 21 -8
39 -13 39 -5 0 -9 7 -9 15 0 8 -9 15 -20 15 -18 0 -20 7 -22 68 -1 37 -4 -22
-7 -130 -5 -145 -10 -200 -19 -210 -11 -11 -13 -8 -11 17 2 17 -1 36 -5 44 -5
8 -5 12 0 8 11 -6 11 44 0 61 -4 7 -2 12 4 12 6 0 8 5 5 10 -5 8 -11 7 -21 -1
-8 -6 -14 -7 -14 -2 0 5 -15 9 -32 9 -28 -1 -34 3 -36 24 -2 14 -14 36 -27 50
-20 21 -25 38 -28 100 l-3 75 -2 -75z m-112 -60 c0 -5 -5 -10 -11 -10 -5 0 -7
5 -4 10 3 6 8 10 11 10 2 0 4 -4 4 -10z m50 0 c0 -5 -7 -10 -16 -10 -8 0 -12
5 -9 10 3 6 10 10 16 10 5 0 9 -4 9 -10z m-25 -51 c-10 -15 -25 -10 -19 6 4 8
10 12 15 9 5 -3 7 -10 4 -15z m107 -6 c22 -20 23 -56 2 -77 -21 -22 -40 -20
-58 6 -21 30 -20 44 4 68 24 24 28 25 52 3z m118 -114 c0 -20 -8 -23 -33 -13
-9 3 -13 13 -10 25 3 10 0 19 -6 19 -6 0 -11 -5 -11 -11 0 -5 -5 -7 -11 -4 -6
5 -4 12 7 20 15 11 22 10 41 -2 13 -9 23 -24 23 -34z m-84 -56 c-3 -8 -6 -19
-6 -24 0 -6 -5 -7 -10 -4 -8 5 -8 11 -1 19 7 9 7 16 -2 25 -9 10 -8 11 6 5 11
-4 16 -13 13 -21z m51 10 c-4 -3 0 -14 9 -24 17 -19 13 -49 -6 -49 -6 0 -10
10 -8 23 1 12 -2 24 -7 27 -6 3 -11 -7 -13 -22 -2 -19 -8 -25 -18 -21 -21 8
-17 19 13 48 24 21 48 37 30 18z m33 -8 c0 -8 -2 -15 -4 -15 -2 0 -6 7 -10 15
-3 8 -1 15 4 15 6 0 10 -7 10 -15z"/>
<path d="M360 570 c0 -5 5 -10 11 -10 5 0 7 5 4 10 -3 6 -8 10 -11 10 -2 0 -4
-4 -4 -10z"/>
<path d="M400 570 c0 -5 5 -10 10 -10 6 0 10 5 10 10 0 6 -4 10 -10 10 -5 0
-10 -4 -10 -10z"/>
<path d="M380 534 c0 -8 5 -12 10 -9 6 4 8 11 5 16 -9 14 -15 11 -15 -7z"/>
<path d="M506 501 c-4 -7 -5 -15 -2 -18 9 -9 19 4 14 18 -4 11 -6 11 -12 0z"/>
<path d="M850 779 c13 -6 28 -15 32 -22 10 -16 10 -389 -1 -405 -4 -7 -21 -17
-37 -22 -21 -6 1 -8 76 -8 58 0 95 3 83 5 -47 9 -53 34 -53 224 0 98 3 185 6
194 4 10 21 23 38 31 29 12 23 13 -69 13 -76 0 -94 -3 -75 -10z"/>
<path d="M1476 776 c17 -8 34 -21 38 -31 3 -9 6 -96 6 -194 0 -190 -6 -215
-53 -224 -12 -2 25 -5 83 -5 75 0 97 2 76 8 -16 5 -33 15 -37 22 -5 7 -9 55
-9 106 l0 92 59 0 c50 0 62 -4 75 -22 8 -12 13 -25 10 -30 -3 -4 -2 -8 3 -8 4
0 8 31 8 70 0 38 -3 70 -7 70 -5 0 -8 -6 -8 -14 0 -30 -30 -46 -86 -46 l-54 0
0 100 0 100 65 0 c78 0 111 -14 124 -51 15 -45 26 -34 23 21 l-4 50 -171 0
c-153 -1 -169 -2 -141 -14z"/>
<path d="M474 756 c-4 -10 -13 -15 -23 -12 -11 4 -10 2 3 -9 18 -13 18 -15 3
-15 -10 0 -20 7 -23 15 -4 8 -10 12 -15 9 -16 -10 -9 -31 14 -42 17 -8 18 -11
5 -11 -10 -1 -18 -7 -18 -14 0 -22 11 -27 27 -11 19 18 33 10 26 -16 -3 -11
-9 -17 -14 -14 -5 3 -9 -2 -9 -10 0 -17 25 -22 35 -6 3 5 13 6 21 3 13 -5 13
-7 2 -14 -11 -7 -10 -11 2 -19 11 -7 16 -4 21 13 3 12 2 27 -3 33 -5 7 -3 14
7 18 12 4 14 14 9 41 -3 19 -2 35 3 35 5 0 9 9 10 21 1 12 -3 19 -10 16 -7 -2
-13 -24 -14 -48 -1 -24 -2 -48 -2 -53 -1 -5 -8 -3 -16 4 -11 9 -13 16 -5 24
13 13 13 76 -1 76 -5 0 -7 -6 -3 -12 5 -9 3 -9 -9 1 -14 11 -18 11 -23 -3z"/>
<path d="M700 634 c0 -8 5 -12 10 -9 6 3 10 10 10 16 0 5 -4 9 -10 9 -5 0 -10
-7 -10 -16z"/>
<path d="M133 632 c-20 -3 -23 -9 -22 -45 l2 -42 6 40 c7 39 7 39 12 10 3 -17
3 -64 0 -105 l-6 -75 -6 65 -6 65 -1 -62 c-2 -49 -5 -63 -17 -63 -11 0 -15 12
-15 52 0 50 0 51 -20 33 -19 -17 -20 -17 -21 1 0 10 -3 14 -5 7 -3 -7 0 -22 7
-35 l13 -23 8 25 c5 16 6 3 5 -38 -2 -42 -8 -67 -18 -73 -9 -6 8 -9 50 -9 71
0 74 9 8 21 l-42 8 40 -2 40 -2 0 115 c-1 67 3 118 9 122 15 10 5 14 -21 10z"/>
<path d="M31 619 c0 -9 6 -22 14 -29 12 -10 15 -9 15 4 0 10 -4 15 -9 11 -5
-3 -12 3 -14 12 -4 15 -5 15 -6 2z"/>
<path d="M669 611 c9 -6 12 -20 9 -40 -3 -19 0 -32 9 -35 9 -4 13 5 13 33 0
26 -5 41 -16 45 -23 9 -31 7 -15 -3z"/>
<path d="M73 570 c0 -25 2 -35 4 -22 2 12 2 32 0 45 -2 12 -4 2 -4 -23z"/>
<path d="M710 594 c0 -8 5 -12 10 -9 6 4 8 11 5 16 -9 14 -15 11 -15 -7z"/>
<path d="M642 482 c-1 -35 -9 -76 -17 -92 l-16 -30 63 0 c40 0 58 4 49 9 -8 5
-16 36 -20 74 -4 36 -3 63 1 61 4 -3 8 -14 8 -26 0 -17 2 -18 15 -8 8 7 14 22
14 34 -2 19 -2 19 -6 -3 l-5 -23 -14 21 c-24 33 -34 25 -34 -29 0 -37 -4 -50
-15 -50 -10 0 -15 16 -18 63 l-3 62 -2 -63z m46 -99 c-10 -2 -28 -2 -40 0 -13
2 -5 4 17 4 22 1 32 -1 23 -4z"/>
<path d="M374 378 c7 -22 -3 -50 -14 -43 -5 3 -12 1 -15 -5 -4 -6 -3 -10 2 -9
4 1 16 -1 26 -5 9 -5 25 -5 35 0 9 4 24 6 32 5 13 -2 13 -1 0 8 -8 5 -18 8
-22 5 -4 -3 -17 10 -29 28 -12 18 -19 25 -15 16z"/>
<path d="M55 338 c11 -7 40 -13 65 -13 25 -1 39 0 31 3 -11 4 -11 6 0 13 9 5
-11 9 -51 9 -54 -1 -62 -3 -45 -12z m52 -4 c-3 -3 -12 -4 -19 -1 -8 3 -5 6 6
6 11 1 17 -2 13 -5z"/>
<path d="M619 341 c11 -7 10 -10 -5 -13 -10 -2 11 -4 48 -3 38 0 63 2 57 4 -7
2 -7 6 2 12 9 5 -11 9 -51 9 -41 0 -60 -4 -51 -9z"/>
<path d="M33 220 c0 -25 2 -35 4 -22 2 12 2 32 0 45 -2 12 -4 2 -4 -23z"/>
<path d="M62 220 c1 -42 1 -43 7 -12 l6 34 18 -31 c25 -42 37 -39 37 9 0 23
-5 40 -11 40 -7 0 -9 -12 -7 -32 l5 -31 -28 34 -28 34 1 -45z"/>
<path d="M146 245 c-4 -11 3 -19 19 -25 14 -5 25 -14 25 -20 0 -13 -37 -13
-43 0 -3 6 -4 5 -3 -2 3 -17 58 -17 63 -1 3 7 -7 18 -21 24 -31 14 -35 34 -6
26 11 -3 18 -1 14 4 -9 15 -41 10 -48 -6z"/>
<path d="M222 253 c11 -3 18 -17 21 -41 l4 -37 1 37 c1 25 7 38 20 41 9 3 -1
5 -23 5 -22 0 -32 -2 -23 -5z"/>
<path d="M293 220 c0 -25 2 -35 4 -22 2 12 2 32 0 45 -2 12 -4 2 -4 -23z"/>
<path d="M322 253 c11 -3 18 -17 21 -41 l4 -37 1 37 c1 25 7 38 20 41 9 3 -1
5 -23 5 -22 0 -32 -2 -23 -5z"/>
<path d="M394 220 c1 -29 5 -36 25 -38 13 -2 28 2 32 10 12 18 11 68 -1 68 -5
0 -10 -16 -10 -35 0 -28 -4 -35 -19 -35 -15 0 -21 8 -24 33 -4 32 -4 32 -3 -3z"/>
<path d="M483 253 c9 -2 25 -2 35 0 9 3 1 5 -18 5 -19 0 -27 -2 -17 -5z"/>
<path d="M540 240 c-15 -28 4 -60 35 -60 14 0 29 8 35 20 15 28 -4 60 -35 60
-14 0 -29 -8 -35 -20z m57 -1 c17 -17 3 -49 -22 -49 -14 0 -25 7 -28 19 -5 20
9 41 28 41 6 0 16 -5 22 -11z"/>
<path d="M667 253 c-13 -12 -7 -23 18 -35 14 -6 25 -16 25 -21 0 -5 -11 -7
-25 -5 -14 3 -25 1 -25 -4 0 -5 12 -8 28 -6 33 4 36 29 5 43 -31 13 -29 29 3
21 17 -5 23 -3 19 4 -7 11 -38 14 -48 3z"/>
<path d="M740 240 c-15 -29 4 -60 36 -60 17 0 28 7 31 20 7 26 19 26 26 -1 4
-16 12 -20 33 -17 15 2 29 9 30 16 1 7 0 8 -3 2 -9 -18 -50 -11 -56 10 -6 25
16 43 44 35 14 -5 19 -4 15 4 -11 17 -54 13 -66 -6 -10 -17 -10 -17 -20 0 -15
23 -57 22 -70 -3z m57 -1 c17 -17 3 -49 -22 -49 -14 0 -25 7 -28 19 -5 20 9
41 28 41 6 0 16 -5 22 -11z"/>
<path d="M913 220 c0 -25 2 -35 4 -22 2 12 2 32 0 45 -2 12 -4 2 -4 -23z"/>
<path d="M945 224 c-18 -44 -19 -52 -3 -36 15 15 48 16 48 0 0 -6 3 -9 6 -5 8
8 -15 77 -27 77 -5 0 -16 -16 -24 -36z m35 -6 c0 -5 -4 -8 -10 -8 -5 0 -10 10
-10 23 0 18 2 19 10 7 5 -8 10 -18 10 -22z"/>
<path d="M1022 223 c-2 -41 -1 -43 26 -42 22 1 23 2 5 6 -17 3 -23 13 -26 41
l-4 37 -1 -42z"/>
<path d="M1110 220 c0 -38 2 -40 30 -40 23 0 33 6 39 23 13 32 -4 57 -39 57
-28 0 -30 -2 -30 -40z m58 -2 c3 -22 -1 -28 -16 -28 -14 0 -21 8 -24 30 -4 27
-2 31 16 28 15 -2 22 -12 24 -30z"/>
<path d="M1194 220 c1 -38 2 -40 31 -39 23 1 25 3 8 6 -13 2 -23 11 -23 19 0
8 10 14 23 15 13 0 16 2 7 6 -42 14 -44 17 -10 23 l35 7 -36 2 c-36 1 -36 1
-35 -39z"/>
<path d="M1300 220 c0 -39 1 -40 35 -40 19 0 35 5 35 10 0 14 33 13 48 -2 16
-16 15 -8 -3 36 -19 45 -30 46 -45 1 -8 -24 -18 -35 -31 -35 -15 0 -19 7 -19
35 0 19 -4 35 -10 35 -5 0 -10 -18 -10 -40z m96 -7 c-11 -11 -17 4 -9 23 7 18
8 18 11 1 2 -10 1 -21 -2 -24z"/>
<path d="M1446 245 c-4 -11 3 -19 19 -25 14 -5 25 -14 25 -20 0 -13 -37 -13
-43 0 -3 6 -4 5 -3 -2 3 -17 58 -17 63 -1 3 7 -7 18 -21 24 -31 14 -35 34 -6
26 11 -3 18 -1 14 4 -9 15 -41 10 -48 -6z"/>
<path d="M1551 218 c1 -24 4 -33 6 -21 2 13 13 24 26 26 l22 4 -22 2 c-32 2
-29 19 5 24 25 4 25 4 -5 6 -33 1 -33 0 -32 -41z"/>
<path d="M1624 220 c1 -29 5 -36 25 -38 13 -2 28 2 32 10 12 18 11 68 -1 68
-5 0 -10 -16 -10 -35 0 -28 -4 -35 -19 -35 -15 0 -21 8 -24 33 -4 32 -4 32 -3
-3z"/>
<path d="M1700 220 c0 -39 1 -40 33 -39 30 2 30 2 5 6 -34 5 -37 30 -5 36 l22
4 -22 2 c-32 2 -29 19 5 24 25 4 25 4 -5 6 -32 1 -33 0 -33 -39z"/>
<path d="M1781 217 c1 -23 4 -32 6 -19 2 12 8 22 12 22 5 0 16 -10 25 -22 13
-17 16 -18 12 -5 -8 26 15 57 42 57 l23 0 -27 -35 -26 -35 33 1 c25 1 28 3 11
6 l-23 5 26 33 25 34 -70 0 -70 0 1 -42z m49 23 c0 -5 -9 -10 -20 -10 -11 0
-20 5 -20 10 0 6 9 10 20 10 11 0 20 -4 20 -10z"/>
<path d="M1935 224 c-18 -44 -19 -52 -3 -36 15 15 48 16 48 0 0 -6 3 -9 6 -5
8 8 -15 77 -27 77 -5 0 -16 -16 -24 -36z m35 -6 c0 -5 -4 -8 -10 -8 -5 0 -10
10 -10 23 0 18 2 19 10 7 5 -8 10 -18 10 -22z"/>
<path d="M2006 245 c-4 -11 3 -19 19 -25 14 -5 25 -14 25 -20 0 -13 -37 -13
-43 0 -3 6 -4 5 -3 -2 3 -17 58 -17 63 -1 3 7 -7 18 -21 24 -31 14 -35 34 -6
26 11 -3 18 -1 14 4 -9 15 -41 10 -48 -6z"/>
<path d="M2120 224 c-7 -19 -9 -38 -6 -41 3 -4 6 -1 6 5 0 16 33 15 48 0 16
-16 15 -8 -3 36 -19 45 -30 45 -45 0z m26 -11 c-11 -11 -17 4 -9 23 7 18 8 18
11 1 2 -10 1 -21 -2 -24z"/>
<path d="M2191 218 c1 -24 4 -33 6 -20 6 29 12 28 41 -5 20 -24 21 -25 12 -5
-9 17 -8 27 0 37 17 20 4 35 -31 35 -28 0 -29 -2 -28 -42z m49 22 c0 -5 -9
-10 -20 -10 -11 0 -20 5 -20 10 0 6 9 10 20 10 11 0 20 -4 20 -10z"/>
<path d="M2272 220 c-2 -24 2 -40 8 -40 8 0 10 12 6 33 l-6 32 15 -32 c20 -44
27 -42 11 4 -17 50 -32 52 -34 3z"/>
<path d="M2324 235 c-4 -14 -4 -29 0 -32 3 -4 7 5 7 18 1 18 3 15 9 -11 l7
-35 2 43 c1 46 -15 57 -25 17z"/>
<path d="M2375 224 c-18 -44 -19 -52 -3 -36 15 15 48 16 48 0 0 -6 3 -9 6 -5
8 8 -15 77 -27 77 -5 0 -16 -16 -24 -36z m35 -6 c0 -5 -4 -8 -10 -8 -5 0 -10
10 -10 23 0 18 2 19 10 7 5 -8 10 -18 10 -22z"/>
<path d="M2440 220 c0 -38 2 -40 30 -40 36 0 56 30 40 60 -7 13 -21 20 -40 20
-28 0 -30 -2 -30 -40z m58 -2 c3 -22 -1 -28 -16 -28 -14 0 -21 8 -24 30 -4 27
-2 31 16 28 15 -2 22 -12 24 -30z"/>
<path d="M2530 224 c-7 -19 -9 -38 -6 -41 3 -4 6 -1 6 5 0 16 33 15 48 0 16
-16 15 -8 -3 36 -19 45 -30 45 -45 0z m26 -11 c-11 -11 -17 4 -9 23 7 18 8 18
11 1 2 -10 1 -21 -2 -24z"/>
<path d="M2606 245 c-4 -11 3 -19 19 -25 14 -5 25 -14 25 -20 0 -13 -37 -13
-43 0 -3 6 -4 5 -3 -2 3 -17 58 -17 63 -1 3 7 -7 18 -21 24 -31 14 -35 34 -6
26 11 -3 18 -1 14 4 -9 15 -41 10 -48 -6z"/>
<path d="M490 210 c0 -16 5 -30 10 -30 6 0 10 14 10 30 0 17 -4 30 -10 30 -5
0 -10 -13 -10 -30z"/>
</g>
</svg>
