<?xml version="1.0" standalone="no"?>
<!DOCTYPE svg PUBLIC "-//W3C//DTD SVG 20010904//EN"
 "http://www.w3.org/TR/2001/REC-SVG-20010904/DTD/svg10.dtd">
<svg version="1.0" xmlns="http://www.w3.org/2000/svg"
 width="225.000000pt" height="225.000000pt" viewBox="0 0 225.000000 225.000000"
 preserveAspectRatio="xMidYMid meet">

<g transform="translate(0.000000,225.000000) scale(0.100000,-0.100000)"
fill="#000000" stroke="none">
<path d="M761 1717 c-13 -6 -34 -25 -45 -40 -20 -27 -21 -41 -24 -377 -3 -382
-1 -401 54 -437 23 -15 48 -18 134 -18 86 0 111 3 134 18 43 29 59 79 54 172
-4 74 -9 89 -61 190 l-57 110 0 -181 c0 -194 -1 -196 -52 -209 -21 -5 -33 -1
-52 19 l-26 25 0 300 0 300 26 20 c21 17 41 21 94 21 78 0 115 21 122 70 l5
30 -141 0 c-92 0 -149 -5 -165 -13z"/>
<path d="M1410 1362 c0 -410 0 -412 -64 -412 -61 0 -66 15 -67 211 l0 174 -59
-115 c-58 -113 -59 -116 -59 -200 -1 -143 38 -180 195 -180 102 0 145 16 168
65 23 48 24 721 1 765 -16 32 -61 60 -95 60 -20 0 -20 -4 -20 -368z"/>
<path d="M690 645 c0 -133 18 -158 22 -32 l3 82 19 -37 c11 -21 23 -38 27 -38
5 0 17 19 28 43 l19 42 1 -87 c1 -52 5 -88 11 -88 6 0 10 45 10 115 0 69 -4
115 -10 115 -5 0 -21 -23 -36 -51 l-26 -51 -23 51 c-13 28 -29 51 -35 51 -6 0
-10 -42 -10 -115z"/>
<path d="M880 661 c0 -92 2 -101 22 -115 30 -21 44 -20 68 4 17 17 20 33 20
115 0 125 -18 124 -22 -1 -2 -77 -6 -99 -20 -107 -12 -8 -21 -7 -32 2 -13 11
-16 34 -16 107 0 56 -4 94 -10 94 -6 0 -10 -40 -10 -99z"/>
<path d="M1050 740 c-6 -11 -10 -57 -8 -101 3 -69 6 -84 23 -95 16 -11 25 -11
45 -1 21 10 26 21 28 60 3 45 2 47 -23 47 -15 0 -24 -4 -20 -10 3 -5 13 -10
21 -10 17 0 19 -51 2 -68 -19 -19 -46 -14 -59 9 -16 30 -8 157 11 169 20 13
26 12 43 -5 18 -17 31 -7 16 12 -18 20 -67 16 -79 -7z"/>
<path d="M1192 648 l3 -113 39 -3 c21 -2 43 1 49 7 8 8 -1 11 -31 11 l-42 0 0
45 c0 43 1 45 29 45 17 0 33 5 36 10 4 6 -8 10 -29 10 -36 0 -36 0 -36 44 l0
45 43 4 c40 3 39 4 -11 5 l-53 2 3 -112z"/>
<path d="M1358 663 c-3 -91 -5 -99 -25 -108 -28 -12 -30 -25 -5 -25 40 0 52
31 52 133 0 127 -18 127 -22 0z"/>
<path d="M1430 665 c0 -82 3 -98 20 -115 24 -24 38 -25 68 -4 20 14 22 23 22
115 0 128 -18 131 -22 3 -2 -77 -6 -99 -20 -107 -12 -8 -21 -7 -32 2 -13 11
-16 34 -16 107 0 56 -4 94 -10 94 -6 0 -10 -38 -10 -95z"/>
</g>
</svg>
