<?xml version="1.0" standalone="no"?>
<!DOCTYPE svg PUBLIC "-//W3C//DTD SVG 20010904//EN"
 "http://www.w3.org/TR/2001/REC-SVG-20010904/DTD/svg10.dtd">
<svg version="1.0" xmlns="http://www.w3.org/2000/svg"
 width="318.000000pt" height="159.000000pt" viewBox="0 0 318.000000 159.000000"
 preserveAspectRatio="xMidYMid meet">

<g transform="translate(0.000000,159.000000) scale(0.100000,-0.100000)"
fill="#000000" stroke="none">
<path d="M2441 1274 c-11 -15 -25 -43 -31 -63 -19 -69 -159 -666 -172 -734 -7
-37 -15 -67 -18 -67 -3 0 -12 28 -19 63 -21 106 -31 137 -52 158 -28 28 -62
24 -112 -15 -75 -57 -67 -56 -355 -56 l-269 0 -7 -31 c-3 -17 -6 -34 -6 -38 0
-3 132 -4 293 -1 l294 5 53 33 c29 18 59 31 66 28 7 -3 18 -31 24 -63 19 -90
49 -179 64 -192 24 -20 53 4 74 61 10 29 54 207 98 395 43 189 82 343 87 343
4 0 7 -42 7 -92 0 -51 5 -180 10 -287 9 -164 13 -196 28 -208 10 -9 11 -11 2
-7 -13 7 -13 5 -1 -9 15 -19 36 -23 25 -5 -5 7 -2 9 8 5 10 -3 25 5 39 21 l24
27 -26 -20 c-14 -11 -9 -5 10 14 20 19 29 31 21 27 -8 -4 -4 2 10 14 14 12 18
19 10 15 -8 -4 -4 3 10 15 14 12 18 19 10 15 -8 -4 -4 3 10 14 14 11 36 21 50
21 20 0 22 2 10 11 -13 9 -13 10 0 6 8 -2 14 -9 13 -16 -4 -14 43 -44 57 -36
6 4 9 1 8 -5 -2 -7 14 -18 36 -26 34 -12 37 -12 26 1 -11 13 -10 14 4 9 9 -3
16 -10 16 -16 0 -5 19 -8 42 -6 39 3 43 6 49 36 l6 32 -54 0 c-58 0 -97 16
-153 61 -65 54 -118 31 -189 -84 -16 -26 -26 -35 -31 -26 -4 6 -9 66 -10 133
-4 304 -17 515 -34 541 -21 32 -30 31 -55 -1z m248 -597 c-2 -1 -13 -9 -24
-17 -19 -14 -19 -14 -6 3 7 9 18 17 24 17 6 0 8 -1 6 -3z m249 -84 c-10 -2
-28 -2 -40 0 -13 2 -5 4 17 4 22 1 32 -1 23 -4z"/>
<path d="M344 1166 c-53 -23 -74 -54 -74 -106 0 -52 8 -62 88 -114 73 -48 71
-104 -5 -125 -26 -7 -46 -6 -76 4 -23 8 -42 13 -42 12 0 -1 -7 -10 -14 -19
-12 -16 -10 -20 22 -33 109 -45 227 11 227 107 0 53 -11 71 -64 102 -59 34
-76 53 -76 80 0 47 61 70 124 46 21 -8 27 -6 36 10 14 27 14 28 -27 39 -50 14
-81 13 -119 -3z"/>
<path d="M1254 1155 c-9 -23 3 -45 24 -45 25 0 44 23 36 44 -8 20 -53 21 -60
1z"/>
<path d="M1396 1128 c-3 -13 -7 -32 -8 -43 -2 -12 -12 -21 -26 -23 -25 -4 -32
-42 -7 -42 19 0 19 -19 0 -115 -21 -111 -7 -135 76 -135 32 0 39 3 39 20 0 14
-7 20 -24 20 -43 0 -47 18 -29 118 l16 92 39 0 c31 0 38 3 38 20 0 16 -7 20
-35 20 -33 0 -34 1 -28 32 5 23 2 34 -12 45 -26 18 -34 16 -39 -9z"/>
<path d="M1930 1053 c-78 -40 -79 -104 -1 -146 58 -32 68 -50 41 -77 -22 -22
-60 -26 -92 -9 -18 10 -24 8 -35 -7 -13 -17 -11 -20 14 -31 38 -16 87 -16 128
1 38 16 55 42 55 85 0 31 -18 49 -79 83 -63 35 -17 96 52 70 30 -11 46 -4 47
20 0 25 -88 33 -130 11z"/>
<path d="M605 1041 c-83 -50 -106 -192 -40 -248 35 -31 102 -31 139 -2 l27 22
15 -22 c15 -20 44 -29 44 -13 0 9 38 225 45 260 5 19 1 22 -25 22 -23 0 -30
-4 -30 -20 0 -11 -3 -20 -6 -20 -3 0 -17 9 -31 20 -33 26 -98 26 -138 1z m129
-43 c38 -54 4 -161 -57 -182 -57 -20 -103 51 -83 129 17 67 107 101 140 53z"/>
<path d="M891 933 c-12 -71 -25 -136 -27 -145 -4 -14 1 -18 25 -18 17 0 31 2
31 4 0 25 35 176 45 197 16 31 65 54 94 44 30 -9 34 -41 17 -135 -21 -111 -21
-112 11 -108 27 3 28 6 47 116 19 113 19 113 -1 140 -27 37 -93 43 -136 12
l-29 -22 -14 21 c-30 42 -40 25 -63 -106z"/>
<path d="M1231 1008 c-18 -92 -41 -220 -41 -229 0 -11 47 -12 54 -1 2 4 14 63
26 130 18 98 20 125 10 137 -23 28 -38 16 -49 -37z"/>
<path d="M1604 1050 c-32 -13 -72 -66 -85 -112 -14 -55 -4 -105 31 -140 39
-39 105 -40 149 -2 29 24 31 25 31 6 0 -18 35 -41 44 -30 2 1 14 67 28 146
l25 142 -29 0 c-21 0 -28 -5 -28 -20 0 -11 -3 -20 -6 -20 -3 0 -17 9 -31 20
-27 21 -90 26 -129 10z m116 -50 c28 -28 27 -97 -2 -140 -44 -64 -118 -61
-137 5 -28 101 74 200 139 135z"/>
</g>
</svg>
