<?xml version="1.0" encoding="UTF-8"?>
<svg xmlns="http://www.w3.org/2000/svg" xmlns:xlink="http://www.w3.org/1999/xlink" width="841.89pt" height="595.276pt" viewBox="0 0 841.89 595.276" version="1.1">
<g id="surface1">
<path style=" stroke:none;fill-rule:nonzero;fill:rgb(13.729858%,12.159729%,12.548828%);fill-opacity:1;" d="M 295.554688 185.339844 C 295.632812 184.929688 295.746094 184.523438 295.898438 184.128906 C 296.039062 183.761719 296.214844 183.402344 296.421875 183.066406 C 296.648438 182.703125 296.914062 182.367188 297.226562 182.074219 C 297.523438 181.796875 297.851562 181.5625 298.21875 181.386719 L 299.199219 181.046875 C 299.640625 180.949219 300.085938 180.925781 300.535156 180.96875 C 300.945312 181.007812 301.347656 181.101562 301.738281 181.242188 C 302.03125 181.347656 302.316406 181.480469 302.589844 181.632812 C 302.71875 181.703125 302.84375 181.777344 302.964844 181.855469 C 303.101562 181.941406 303.234375 182.03125 303.363281 182.128906 C 303.546875 182.265625 303.726562 182.40625 303.898438 182.558594 C 304.53125 183.113281 305.089844 183.765625 305.570312 184.457031 C 306.046875 185.148438 306.457031 185.898438 306.785156 186.671875 C 307.433594 188.191406 307.800781 189.886719 307.722656 191.554688 C 307.714844 191.785156 307.695312 192.015625 307.664062 192.25 C 307.652344 192.363281 307.632812 192.480469 307.613281 192.59375 C 307.601562 192.6875 307.582031 192.78125 307.5625 192.878906 C 307.539062 192.996094 307.511719 193.113281 307.480469 193.230469 C 307.414062 193.46875 307.339844 193.699219 307.246094 193.929688 C 306.960938 194.667969 306.542969 195.355469 306.074219 195.984375 C 305.121094 195.953125 304.160156 195.925781 303.199219 195.90625 C 302.402344 195.785156 301.621094 195.574219 300.878906 195.261719 C 300.121094 194.949219 299.414062 194.539062 298.773438 194.027344 C 298.132812 193.519531 297.570312 192.921875 297.09375 192.257812 C 296.621094 191.59375 296.242188 190.871094 295.964844 190.109375 C 295.820312 189.722656 295.703125 189.324219 295.613281 188.921875 C 295.570312 188.726562 295.535156 188.53125 295.503906 188.335938 C 295.476562 188.140625 295.449219 187.949219 295.433594 187.753906 C 295.363281 186.949219 295.398438 186.132812 295.554688 185.339844 M 318.21875 182.964844 C 317.09375 182.628906 315.980469 182.167969 314.980469 181.53125 C 314.480469 181.210938 314.007812 180.847656 313.578125 180.433594 C 313.367188 180.226562 313.167969 180.011719 312.980469 179.78125 C 312.886719 179.667969 312.796875 179.550781 312.710938 179.433594 C 312.664062 179.371094 312.621094 179.3125 312.582031 179.25 C 312.53125 179.175781 312.480469 179.097656 312.429688 179.019531 C 312.09375 178.492188 311.773438 177.957031 311.476562 177.402344 C 311.199219 176.886719 310.945312 176.363281 310.71875 175.824219 C 310.46875 175.242188 310.253906 174.648438 310.082031 174.039062 C 309.921875 173.480469 309.796875 172.90625 309.722656 172.332031 C 309.636719 171.699219 309.613281 171.058594 309.660156 170.421875 C 309.707031 169.824219 309.820312 169.238281 310.007812 168.667969 C 310.148438 168.230469 310.335938 167.808594 310.566406 167.410156 C 310.683594 167.210938 310.808594 167.015625 310.941406 166.828125 C 311.023438 166.714844 311.109375 166.605469 311.199219 166.496094 C 311.480469 166.152344 311.796875 165.839844 312.144531 165.558594 C 313.140625 164.746094 314.351562 164.226562 315.625 164.058594 C 316.046875 164.042969 316.464844 164.027344 316.882812 164.011719 C 318.910156 164.117188 320.621094 165.121094 321.703125 166.839844 C 321.886719 167.128906 322.042969 167.429688 322.183594 167.742188 C 322.230469 167.851562 322.273438 167.960938 322.320312 168.070312 C 322.382812 168.222656 322.441406 168.378906 322.496094 168.53125 C 322.613281 168.851562 322.722656 169.175781 322.820312 169.503906 C 323.097656 170.433594 323.296875 171.394531 323.429688 172.355469 C 323.6875 174.273438 323.675781 176.261719 323.382812 178.179688 C 323.09375 180.070312 322.523438 181.921875 321.636719 183.625 C 320.488281 183.503906 319.328125 183.289062 318.21875 182.964844 M 338.816406 175.394531 C 338.273438 175.195312 337.742188 174.96875 337.222656 174.710938 C 336.257812 174.234375 335.34375 173.664062 334.507812 172.976562 C 333.488281 172.132812 332.628906 171.148438 331.941406 170.015625 C 331.597656 169.445312 331.300781 168.847656 331.054688 168.222656 C 330.992188 168.066406 330.933594 167.90625 330.875 167.742188 C 330.84375 167.652344 330.8125 167.558594 330.78125 167.464844 C 330.746094 167.367188 330.714844 167.265625 330.683594 167.167969 C 330.558594 166.777344 330.445312 166.382812 330.34375 165.984375 C 330.15625 165.253906 330.007812 164.507812 329.90625 163.761719 C 329.808594 163.046875 329.75 162.324219 329.742188 161.605469 C 329.734375 160.921875 329.765625 160.238281 329.851562 159.5625 C 329.929688 158.921875 330.054688 158.28125 330.230469 157.660156 C 330.515625 156.652344 330.941406 155.675781 331.535156 154.804688 C 331.675781 154.59375 331.824219 154.394531 331.984375 154.203125 C 332.078125 154.085938 332.179688 153.972656 332.28125 153.863281 C 332.46875 153.664062 332.664062 153.476562 332.871094 153.296875 C 333.722656 152.566406 334.699219 152.085938 335.78125 151.8125 C 336.445312 151.644531 337.125 151.558594 337.804688 151.53125 C 337.851562 151.53125 337.894531 151.527344 337.941406 151.527344 C 337.964844 151.527344 337.988281 151.527344 338.007812 151.523438 C 338.03125 151.523438 338.054688 151.523438 338.078125 151.523438 C 338.183594 151.523438 338.289062 151.523438 338.390625 151.527344 C 338.59375 151.535156 338.792969 151.550781 338.992188 151.574219 C 339.371094 151.621094 339.742188 151.691406 340.109375 151.796875 C 340.78125 151.984375 341.414062 152.269531 342.007812 152.636719 C 342.535156 152.96875 343.023438 153.359375 343.472656 153.796875 C 343.699219 154.019531 343.917969 154.253906 344.125 154.5 C 344.195312 154.585938 344.265625 154.671875 344.332031 154.757812 C 344.460938 154.917969 344.582031 155.082031 344.699219 155.25 C 344.9375 155.589844 345.160156 155.941406 345.363281 156.304688 C 345.78125 157.046875 346.121094 157.832031 346.394531 158.632812 C 346.679688 159.464844 346.886719 160.320312 347.027344 161.183594 C 347.25 162.542969 347.304688 163.933594 347.199219 165.308594 C 347.089844 166.695312 346.8125 168.074219 346.367188 169.394531 C 346.308594 169.566406 346.246094 169.742188 346.179688 169.914062 C 346.136719 170.03125 346.089844 170.148438 346.039062 170.265625 C 345.988281 170.394531 345.933594 170.523438 345.878906 170.648438 C 345.761719 170.910156 345.636719 171.171875 345.503906 171.425781 C 345.21875 171.976562 344.898438 172.511719 344.558594 173.027344 C 344.183594 173.59375 343.777344 174.136719 343.351562 174.660156 C 342.886719 175.226562 342.398438 175.769531 341.886719 176.285156 C 341.753906 176.253906 341.625 176.222656 341.492188 176.191406 C 341.429688 176.179688 341.363281 176.160156 341.296875 176.148438 C 341.265625 176.140625 341.234375 176.132812 341.199219 176.125 L 341.175781 176.117188 C 341.164062 176.117188 341.15625 176.113281 341.148438 176.109375 C 341.109375 176.101562 341.070312 176.089844 341.027344 176.082031 C 340.875 176.042969 340.722656 176 340.566406 175.960938 C 339.976562 175.796875 339.390625 175.609375 338.816406 175.394531 M 359.9375 171.238281 C 359.332031 170.679688 358.761719 170.089844 358.238281 169.453125 C 357.308594 168.328125 356.5625 167.117188 355.984375 165.773438 C 355.296875 164.1875 354.90625 162.558594 354.625 160.867188 C 354.554688 160.449219 354.492188 160.03125 354.4375 159.613281 C 354.421875 159.511719 354.40625 159.40625 354.394531 159.300781 C 354.386719 159.257812 354.382812 159.214844 354.375 159.171875 C 354.371094 159.128906 354.367188 159.089844 354.363281 159.046875 C 354.34375 158.878906 354.328125 158.714844 354.316406 158.546875 C 354.261719 157.832031 354.269531 157.105469 354.320312 156.390625 C 354.378906 155.621094 354.488281 154.847656 354.648438 154.089844 C 354.816406 153.304688 355.039062 152.527344 355.316406 151.777344 C 355.871094 150.28125 356.664062 148.832031 357.730469 147.625 C 358.066406 147.238281 358.429688 146.886719 358.820312 146.558594 C 359.109375 146.316406 359.410156 146.09375 359.726562 145.890625 C 360.355469 145.480469 361.023438 145.152344 361.734375 144.90625 C 362.46875 144.652344 363.226562 144.488281 363.996094 144.40625 C 364.402344 144.359375 364.808594 144.339844 365.21875 144.335938 C 365.320312 144.335938 365.425781 144.335938 365.53125 144.339844 C 365.644531 144.339844 365.753906 144.34375 365.867188 144.347656 C 366.097656 144.363281 366.324219 144.382812 366.550781 144.414062 C 367.320312 144.519531 368.058594 144.738281 368.761719 145.066406 C 369.398438 145.359375 369.984375 145.734375 370.527344 146.175781 C 371.011719 146.570312 371.457031 147.015625 371.859375 147.5 C 372.09375 147.777344 372.3125 148.066406 372.519531 148.367188 C 372.988281 149.050781 373.386719 149.777344 373.722656 150.535156 C 374.355469 151.96875 374.765625 153.511719 374.980469 155.0625 C 375.203125 156.679688 375.226562 158.339844 375.0625 159.960938 C 374.871094 161.859375 374.421875 163.761719 373.710938 165.539062 C 373.535156 165.976562 373.34375 166.40625 373.132812 166.828125 C 373.0625 166.976562 372.988281 167.117188 372.910156 167.265625 C 372.851562 167.375 372.792969 167.480469 372.730469 167.589844 C 372.484375 168.027344 372.214844 168.449219 371.921875 168.859375 C 371.058594 170.082031 370.015625 171.171875 368.867188 172.128906 C 367.617188 173.167969 366.242188 174.042969 364.789062 174.761719 C 363.898438 174.167969 363 173.570312 362.097656 172.980469 C 361.34375 172.441406 360.617188 171.863281 359.9375 171.238281 M 385.886719 175.703125 C 385.246094 174.632812 384.707031 173.511719 384.257812 172.347656 C 383.761719 171.0625 383.382812 169.734375 383.105469 168.382812 C 382.960938 167.679688 382.84375 166.972656 382.753906 166.257812 C 382.703125 165.882812 382.664062 165.511719 382.628906 165.136719 C 382.613281 164.957031 382.597656 164.777344 382.582031 164.597656 C 382.566406 164.378906 382.550781 164.15625 382.535156 163.933594 C 382.507812 163.5 382.488281 163.066406 382.472656 162.628906 C 382.425781 161.027344 382.472656 159.417969 382.648438 157.820312 C 382.800781 156.40625 383.054688 155.007812 383.425781 153.632812 C 383.804688 152.21875 384.308594 150.847656 384.945312 149.527344 C 385.519531 148.347656 386.195312 147.226562 386.976562 146.171875 C 387.679688 145.21875 388.464844 144.332031 389.324219 143.515625 C 390.09375 142.785156 390.921875 142.117188 391.800781 141.519531 C 392.183594 141.253906 392.578125 141.003906 392.984375 140.769531 C 393.359375 140.550781 393.738281 140.347656 394.128906 140.15625 C 394.480469 139.984375 394.839844 139.824219 395.203125 139.675781 C 395.527344 139.542969 395.859375 139.421875 396.191406 139.3125 C 396.480469 139.222656 396.773438 139.140625 397.066406 139.070312 C 397.171875 139.046875 397.277344 139.023438 397.386719 139 C 397.574219 138.960938 397.765625 138.929688 397.953125 138.894531 C 398.359375 138.828125 398.765625 138.777344 399.175781 138.738281 C 399.609375 138.699219 400.046875 138.675781 400.484375 138.664062 C 400.945312 138.65625 401.40625 138.660156 401.867188 138.6875 C 402.375 138.710938 402.882812 138.757812 403.386719 138.828125 C 404.582031 138.988281 405.769531 139.269531 406.902344 139.6875 C 407.617188 139.953125 408.308594 140.269531 408.972656 140.648438 C 409.308594 140.839844 409.632812 141.042969 409.949219 141.265625 C 410.121094 141.386719 410.289062 141.511719 410.457031 141.640625 C 410.769531 141.882812 411.066406 142.140625 411.355469 142.414062 C 412.511719 143.519531 413.398438 144.820312 414.039062 146.277344 C 414.375 147.042969 414.636719 147.835938 414.839844 148.648438 C 415.050781 149.515625 415.191406 150.398438 415.277344 151.289062 C 415.355469 152.140625 415.378906 153 415.363281 153.855469 C 415.34375 154.777344 415.277344 155.703125 415.167969 156.621094 C 415.050781 157.621094 414.886719 158.613281 414.6875 159.601562 C 414.464844 160.714844 414.195312 161.816406 413.882812 162.90625 C 413.589844 163.902344 413.261719 164.882812 412.886719 165.847656 C 412.351562 167.214844 411.722656 168.546875 410.984375 169.820312 C 410.335938 170.9375 409.609375 172.007812 408.789062 173.011719 C 408.054688 173.90625 407.257812 174.742188 406.394531 175.511719 C 405.609375 176.210938 404.777344 176.84375 403.894531 177.410156 C 402.785156 178.128906 401.609375 178.734375 400.382812 179.226562 C 399.3125 179.652344 398.210938 179.992188 397.085938 180.242188 C 396.59375 180.351562 396.097656 180.445312 395.597656 180.523438 C 395.148438 180.589844 394.703125 180.644531 394.25 180.683594 C 393.863281 180.71875 393.472656 180.746094 393.082031 180.757812 C 393.058594 180.757812 393.035156 180.757812 393.015625 180.757812 C 392.996094 180.761719 392.976562 180.761719 392.957031 180.761719 C 392.652344 180.765625 392.347656 180.773438 392.042969 180.777344 C 391.433594 180.789062 390.824219 180.804688 390.214844 180.816406 C 389.386719 180.109375 388.613281 179.339844 387.902344 178.507812 C 387.152344 177.628906 386.480469 176.695312 385.886719 175.703125 M 296.882812 196.269531 C 297.695312 196.863281 298.570312 197.347656 299.5 197.722656 C 300.535156 198.144531 301.617188 198.425781 302.71875 198.59375 C 302.984375 198.625 303.246094 198.65625 303.511719 198.691406 C 302.996094 199.136719 302.46875 199.558594 301.941406 199.957031 C 301.382812 200.378906 300.824219 200.773438 300.296875 201.132812 C 299.675781 201.550781 299.09375 201.921875 298.585938 202.230469 C 298.257812 202.433594 297.960938 202.609375 297.707031 202.757812 C 297.4375 202.917969 297.21875 203.039062 297.0625 203.125 C 296.910156 203.210938 296.820312 203.257812 296.8125 203.261719 C 296.660156 203.339844 296.527344 203.441406 296.410156 203.566406 C 296.292969 203.691406 296.203125 203.835938 296.140625 203.992188 C 296.011719 204.324219 296.035156 204.6875 296.199219 205 C 296.285156 205.160156 296.402344 205.300781 296.539062 205.414062 C 296.679688 205.53125 296.835938 205.617188 297.007812 205.683594 C 297.335938 205.804688 297.699219 205.820312 298.039062 205.734375 C 298.15625 205.6875 298.269531 205.644531 298.386719 205.601562 C 298.433594 205.578125 298.578125 205.5 298.804688 205.375 C 299.03125 205.25 299.335938 205.078125 299.703125 204.859375 C 300.078125 204.640625 300.511719 204.378906 300.984375 204.078125 C 301.730469 203.609375 302.574219 203.046875 303.445312 202.40625 C 304.207031 201.847656 304.988281 201.230469 305.746094 200.5625 C 306.476562 199.914062 307.183594 199.21875 307.820312 198.480469 C 308.648438 198.320312 309.457031 198.09375 310.25 197.808594 C 311.023438 197.53125 311.78125 197.199219 312.523438 196.816406 C 313.960938 196.070312 315.332031 195.144531 316.628906 194.085938 C 317.265625 193.5625 317.882812 193.007812 318.484375 192.425781 C 319.085938 191.84375 319.664062 191.234375 320.222656 190.601562 C 320.789062 189.964844 321.335938 189.304688 321.851562 188.632812 C 322.382812 187.9375 322.886719 187.226562 323.359375 186.511719 C 325.09375 186.570312 326.871094 186.46875 328.589844 186.21875 C 329.449219 186.09375 330.308594 185.925781 331.152344 185.71875 C 331.574219 185.613281 331.992188 185.496094 332.410156 185.367188 C 332.609375 185.304688 332.808594 185.238281 333.007812 185.167969 C 333.226562 185.09375 333.445312 185.011719 333.660156 184.929688 C 335.328125 184.296875 336.941406 183.519531 338.472656 182.609375 C 340.050781 181.675781 341.554688 180.597656 342.9375 179.390625 C 343.867188 179.570312 344.785156 179.722656 345.691406 179.851562 C 346.632812 179.984375 347.5625 180.089844 348.476562 180.164062 C 349.425781 180.246094 350.355469 180.292969 351.265625 180.3125 C 352.210938 180.328125 353.132812 180.316406 354.03125 180.269531 C 355.949219 180.171875 357.761719 179.933594 359.46875 179.570312 C 361.328125 179.175781 363.066406 178.632812 364.675781 177.964844 C 368.378906 179.992188 372.316406 181.441406 376.632812 182.363281 C 378.609375 182.78125 380.671875 183.09375 382.828125 183.300781 C 384.824219 183.488281 386.90625 183.589844 389.089844 183.609375 C 390.464844 184.671875 391.90625 185.566406 393.375 186.324219 C 394.910156 187.121094 396.472656 187.769531 397.996094 188.304688 C 399.679688 188.894531 401.320312 189.351562 402.835938 189.714844 C 404.761719 190.175781 406.484375 190.488281 407.816406 190.734375 C 408.464844 190.863281 409.113281 190.996094 409.765625 191.128906 C 410.132812 191.222656 410.523438 191.1875 410.867188 191.023438 C 411.222656 190.855469 411.507812 190.5625 411.628906 190.179688 C 411.6875 189.992188 411.703125 189.796875 411.675781 189.601562 C 411.644531 189.410156 411.570312 189.230469 411.464844 189.066406 C 411.359375 188.910156 411.226562 188.773438 411.070312 188.667969 C 410.914062 188.5625 410.742188 188.484375 410.558594 188.4375 C 409.839844 188.292969 409.121094 188.144531 408.402344 188 C 407.339844 187.800781 406.070312 187.570312 404.679688 187.265625 C 403.53125 187.015625 402.300781 186.714844 401.027344 186.34375 C 399.867188 186 398.675781 185.597656 397.480469 185.117188 C 396.339844 184.65625 395.199219 184.125 394.089844 183.5 C 394.515625 183.46875 394.9375 183.421875 395.363281 183.367188 C 395.859375 183.300781 396.355469 183.222656 396.851562 183.128906 C 397.410156 183.019531 397.96875 182.894531 398.519531 182.75 C 399.132812 182.589844 399.734375 182.410156 400.332031 182.207031 C 400.980469 181.984375 401.617188 181.738281 402.246094 181.464844 C 402.921875 181.167969 403.582031 180.84375 404.230469 180.492188 C 404.921875 180.113281 405.59375 179.703125 406.246094 179.261719 C 406.941406 178.785156 407.609375 178.277344 408.253906 177.734375 C 409.125 176.996094 409.941406 176.199219 410.703125 175.347656 C 411.539062 174.410156 412.304688 173.417969 412.996094 172.371094 C 413.769531 171.210938 414.449219 170 415.046875 168.742188 C 415.71875 167.328125 416.285156 165.871094 416.761719 164.382812 C 417.117188 163.273438 417.417969 162.152344 417.679688 161.015625 C 417.785156 160.546875 417.882812 160.074219 417.976562 159.601562 C 418.042969 159.265625 418.101562 158.925781 418.160156 158.585938 C 418.367188 157.34375 418.515625 156.085938 418.585938 154.824219 C 418.648438 153.722656 418.644531 152.613281 418.566406 151.507812 C 418.496094 150.535156 418.363281 149.570312 418.160156 148.613281 C 417.988281 147.816406 417.765625 147.03125 417.484375 146.265625 C 417.230469 145.570312 416.929688 144.894531 416.582031 144.242188 C 416.261719 143.640625 415.902344 143.066406 415.5 142.519531 C 415.132812 142.011719 414.730469 141.53125 414.300781 141.074219 C 413.898438 140.65625 413.480469 140.261719 413.03125 139.894531 C 412.800781 139.699219 412.558594 139.515625 412.316406 139.335938 C 412.03125 139.125 411.738281 138.925781 411.4375 138.734375 C 410.265625 137.988281 409.003906 137.398438 407.691406 136.949219 C 406.355469 136.496094 404.96875 136.1875 403.574219 136.015625 C 402.257812 135.855469 400.914062 135.808594 399.585938 135.878906 C 398.96875 135.914062 398.355469 135.972656 397.742188 136.054688 C 397.449219 136.097656 397.160156 136.140625 396.871094 136.195312 C 396.730469 136.21875 396.59375 136.246094 396.453125 136.277344 C 396.316406 136.304688 396.171875 136.335938 396.035156 136.367188 C 395.679688 136.449219 395.328125 136.546875 394.980469 136.65625 C 394.578125 136.785156 394.179688 136.933594 393.789062 137.089844 C 393.347656 137.269531 392.914062 137.460938 392.484375 137.671875 C 392.015625 137.902344 391.558594 138.148438 391.105469 138.410156 C 390.105469 138.988281 389.152344 139.648438 388.25 140.375 C 387.242188 141.183594 386.308594 142.078125 385.449219 143.046875 C 384.507812 144.109375 383.671875 145.257812 382.941406 146.476562 C 382.136719 147.820312 381.476562 149.234375 380.945312 150.707031 C 380.496094 151.949219 380.148438 153.222656 379.890625 154.519531 C 379.601562 155.945312 379.425781 157.390625 379.335938 158.84375 C 379.238281 160.464844 379.253906 162.085938 379.359375 163.703125 C 379.386719 164.136719 379.421875 164.570312 379.464844 165.003906 C 379.480469 165.203125 379.503906 165.402344 379.523438 165.597656 C 379.558594 165.90625 379.59375 166.210938 379.636719 166.515625 C 379.839844 168.007812 380.144531 169.480469 380.5625 170.925781 C 380.941406 172.230469 381.410156 173.503906 381.984375 174.734375 C 382.511719 175.863281 383.117188 176.949219 383.8125 177.988281 C 384.460938 178.957031 385.179688 179.875 385.964844 180.734375 C 384.355469 180.664062 382.808594 180.535156 381.316406 180.351562 C 379.722656 180.152344 378.191406 179.886719 376.714844 179.554688 C 373.53125 178.839844 370.59375 177.800781 367.796875 176.417969 C 369.4375 175.460938 370.96875 174.316406 372.324219 172.984375 C 373.585938 171.75 374.691406 170.351562 375.566406 168.8125 C 375.625 168.714844 375.679688 168.609375 375.734375 168.507812 C 375.808594 168.378906 375.878906 168.246094 375.945312 168.113281 C 376.167969 167.671875 376.375 167.226562 376.570312 166.773438 C 376.957031 165.863281 377.28125 164.921875 377.546875 163.964844 C 378.074219 162.050781 378.363281 160.054688 378.390625 158.066406 C 378.421875 156.144531 378.210938 154.207031 377.726562 152.34375 C 377.261719 150.554688 376.539062 148.824219 375.523438 147.269531 C 375.324219 146.960938 375.113281 146.660156 374.890625 146.371094 C 374.738281 146.171875 374.582031 145.980469 374.421875 145.789062 C 374.105469 145.417969 373.773438 145.066406 373.417969 144.734375 C 372.734375 144.089844 371.980469 143.527344 371.164062 143.058594 C 369.53125 142.125 367.730469 141.628906 365.851562 141.550781 C 365.726562 141.542969 365.601562 141.542969 365.476562 141.539062 C 365.347656 141.535156 365.222656 141.535156 365.097656 141.535156 C 364.847656 141.539062 364.597656 141.546875 364.347656 141.558594 C 363.859375 141.585938 363.375 141.632812 362.894531 141.707031 C 361.964844 141.847656 361.050781 142.078125 360.171875 142.40625 C 359.316406 142.726562 358.5 143.132812 357.734375 143.632812 C 357.355469 143.878906 356.988281 144.144531 356.640625 144.433594 C 356.464844 144.578125 356.289062 144.726562 356.121094 144.882812 C 355.890625 145.09375 355.667969 145.3125 355.449219 145.542969 C 354.132812 146.941406 353.140625 148.617188 352.433594 150.390625 C 352.089844 151.257812 351.8125 152.152344 351.601562 153.058594 C 351.398438 153.929688 351.253906 154.820312 351.171875 155.710938 C 351.089844 156.578125 351.066406 157.460938 351.109375 158.332031 C 351.132812 158.730469 351.167969 159.128906 351.222656 159.523438 C 351.238281 159.640625 351.253906 159.757812 351.269531 159.875 C 351.289062 159.996094 351.304688 160.113281 351.324219 160.234375 C 351.359375 160.472656 351.394531 160.710938 351.433594 160.949219 C 351.59375 161.921875 351.785156 162.882812 352.035156 163.835938 C 352.300781 164.824219 352.621094 165.78125 353.03125 166.722656 C 353.355469 167.46875 353.726562 168.1875 354.152344 168.886719 C 354.609375 169.636719 355.117188 170.34375 355.675781 171.019531 C 356.292969 171.769531 356.960938 172.464844 357.675781 173.117188 C 358.480469 173.855469 359.332031 174.53125 360.21875 175.167969 C 360.667969 175.46875 361.113281 175.773438 361.554688 176.082031 C 359.179688 176.859375 356.519531 177.351562 353.597656 177.480469 C 352.28125 177.539062 350.917969 177.523438 349.496094 177.433594 C 348.820312 177.390625 348.136719 177.328125 347.4375 177.25 C 346.761719 177.171875 346.078125 177.078125 345.382812 176.96875 C 346.273438 175.964844 347.074219 174.894531 347.765625 173.742188 C 348.101562 173.179688 348.40625 172.605469 348.679688 172.011719 C 348.816406 171.714844 348.949219 171.414062 349.070312 171.109375 C 349.410156 170.246094 349.6875 169.359375 349.898438 168.457031 C 350.269531 166.855469 350.433594 165.203125 350.398438 163.5625 C 350.367188 161.945312 350.140625 160.320312 349.707031 158.757812 C 349.425781 157.746094 349.054688 156.753906 348.59375 155.808594 C 348.148438 154.890625 347.609375 154.015625 346.980469 153.207031 C 346.773438 152.945312 346.5625 152.691406 346.335938 152.445312 C 346.136719 152.226562 345.933594 152.015625 345.71875 151.8125 C 345.300781 151.414062 344.855469 151.046875 344.382812 150.714844 C 343.050781 149.777344 341.546875 149.152344 339.9375 148.878906 C 339.53125 148.8125 339.128906 148.765625 338.722656 148.742188 C 338.515625 148.734375 338.308594 148.726562 338.101562 148.726562 C 338.078125 148.726562 338.050781 148.726562 338.023438 148.726562 C 337.996094 148.726562 337.972656 148.726562 337.941406 148.730469 C 337.890625 148.730469 337.835938 148.730469 337.78125 148.734375 C 337.675781 148.734375 337.570312 148.738281 337.460938 148.746094 C 336.640625 148.789062 335.824219 148.898438 335.027344 149.09375 C 333.59375 149.445312 332.261719 150.058594 331.085938 150.960938 C 330.5 151.40625 329.96875 151.917969 329.492188 152.476562 C 328.746094 153.355469 328.15625 154.34375 327.703125 155.398438 C 327.398438 156.113281 327.15625 156.855469 326.976562 157.609375 C 326.785156 158.398438 326.664062 159.207031 326.597656 160.015625 C 326.527344 160.859375 326.519531 161.710938 326.570312 162.558594 C 326.621094 163.445312 326.734375 164.324219 326.898438 165.195312 C 327.074219 166.113281 327.308594 167.019531 327.597656 167.90625 C 327.667969 168.136719 327.746094 168.363281 327.824219 168.589844 C 327.890625 168.773438 327.960938 168.953125 328.03125 169.136719 C 328.175781 169.492188 328.332031 169.84375 328.503906 170.191406 C 329.171875 171.550781 330.042969 172.78125 331.097656 173.867188 C 332.164062 174.96875 333.386719 175.886719 334.714844 176.640625 C 335.414062 177.042969 336.144531 177.394531 336.890625 177.707031 C 337.683594 178.035156 338.492188 178.3125 339.3125 178.550781 C 338.257812 179.359375 337.144531 180.085938 335.980469 180.726562 C 334.835938 181.359375 333.652344 181.902344 332.429688 182.363281 C 332.269531 182.421875 332.109375 182.480469 331.949219 182.539062 C 331.800781 182.589844 331.65625 182.636719 331.507812 182.6875 C 331.203125 182.78125 330.898438 182.871094 330.589844 182.953125 C 329.96875 183.117188 329.339844 183.257812 328.707031 183.367188 C 327.449219 183.589844 326.152344 183.714844 324.875 183.75 C 325.421875 182.519531 325.847656 181.230469 326.15625 179.917969 C 326.46875 178.574219 326.660156 177.195312 326.726562 175.816406 C 326.855469 173.066406 326.492188 170.273438 325.582031 167.667969 C 325.488281 167.394531 325.386719 167.128906 325.28125 166.863281 C 325.246094 166.773438 325.210938 166.6875 325.171875 166.601562 C 325.140625 166.523438 325.105469 166.445312 325.070312 166.367188 C 324.929688 166.066406 324.777344 165.773438 324.609375 165.488281 C 324.277344 164.929688 323.886719 164.40625 323.441406 163.929688 C 322.554688 162.980469 321.480469 162.253906 320.273438 161.78125 C 319.601562 161.515625 318.90625 161.339844 318.195312 161.234375 C 318.011719 161.210938 317.828125 161.1875 317.644531 161.175781 C 317.464844 161.15625 317.28125 161.148438 317.097656 161.140625 C 316.742188 161.132812 316.386719 161.136719 316.03125 161.164062 C 314.609375 161.269531 313.210938 161.664062 311.9375 162.304688 C 310.683594 162.933594 309.542969 163.808594 308.632812 164.882812 C 308.1875 165.402344 307.804688 165.96875 307.480469 166.574219 C 307.296875 166.921875 307.132812 167.277344 306.988281 167.648438 C 306.832031 168.054688 306.703125 168.46875 306.601562 168.894531 C 306.46875 169.445312 306.386719 170.003906 306.351562 170.570312 C 306.3125 171.207031 306.332031 171.84375 306.402344 172.480469 C 306.480469 173.203125 306.628906 173.917969 306.828125 174.613281 C 307.058594 175.425781 307.355469 176.214844 307.703125 176.980469 C 307.910156 177.433594 308.132812 177.882812 308.371094 178.320312 C 308.632812 178.800781 308.90625 179.269531 309.195312 179.730469 C 309.347656 179.976562 309.503906 180.21875 309.664062 180.460938 C 309.71875 180.542969 309.773438 180.625 309.832031 180.707031 C 309.867188 180.757812 309.902344 180.808594 309.941406 180.859375 C 310.085938 181.0625 310.238281 181.261719 310.402344 181.453125 C 311.039062 182.214844 311.78125 182.875 312.59375 183.441406 C 313.667969 184.191406 314.855469 184.773438 316.082031 185.214844 C 317.347656 185.671875 318.675781 185.992188 320.003906 186.203125 C 319.351562 187.113281 318.640625 188.007812 317.890625 188.863281 C 317.148438 189.699219 316.363281 190.5 315.546875 191.242188 C 314.71875 191.992188 313.855469 192.683594 312.960938 193.289062 C 312.035156 193.921875 311.078125 194.464844 310.089844 194.898438 C 310.238281 194.402344 310.386719 193.902344 310.539062 193.40625 C 310.742188 192.40625 310.800781 191.378906 310.742188 190.363281 C 310.679688 189.300781 310.492188 188.234375 310.207031 187.207031 C 309.636719 185.1875 308.640625 183.207031 307.261719 181.605469 C 306.765625 181.03125 306.222656 180.503906 305.621094 180.039062 C 305.371094 179.84375 305.113281 179.660156 304.847656 179.488281 C 304.660156 179.367188 304.46875 179.257812 304.273438 179.148438 C 303.53125 178.742188 302.738281 178.445312 301.90625 178.273438 C 300.886719 178.066406 299.855469 178.066406 298.835938 178.265625 C 298.316406 178.367188 297.808594 178.519531 297.316406 178.71875 C 297.191406 178.769531 297.066406 178.820312 296.941406 178.878906 C 296.875 178.910156 296.808594 178.941406 296.742188 178.972656 C 296.664062 179.011719 296.585938 179.050781 296.507812 179.09375 C 296.203125 179.257812 295.910156 179.441406 295.628906 179.644531 C 294.765625 180.277344 294.050781 181.078125 293.5 181.992188 C 292.925781 182.941406 292.542969 183.996094 292.34375 185.082031 C 292.152344 186.109375 292.121094 187.15625 292.230469 188.195312 C 292.261719 188.464844 292.300781 188.734375 292.347656 189.003906 C 292.371094 189.132812 292.398438 189.261719 292.425781 189.390625 C 292.453125 189.519531 292.480469 189.644531 292.511719 189.769531 C 292.644531 190.289062 292.8125 190.796875 293.011719 191.292969 C 293.398438 192.246094 293.914062 193.148438 294.535156 193.964844 C 295.207031 194.84375 295.992188 195.617188 296.882812 196.269531 "/>
<path style=" stroke:none;fill-rule:nonzero;fill:rgb(13.729858%,12.159729%,12.548828%);fill-opacity:1;" d="M 558.6875 376.113281 C 556.589844 375.125 555.199219 374.304688 554.515625 373.652344 C 553.835938 372.996094 553.492188 372.320312 553.492188 371.621094 C 553.492188 370.183594 554.453125 368.929688 556.375 367.851562 C 558.292969 366.773438 560.050781 366.238281 561.648438 366.238281 C 562.035156 366.363281 562.417969 366.488281 562.804688 366.613281 C 563.15625 366.738281 563.503906 366.867188 563.855469 366.992188 C 564.339844 366.992188 564.925781 366.710938 565.617188 366.15625 C 566.308594 365.601562 566.652344 364.972656 566.652344 364.273438 C 566.652344 361.636719 565.136719 360.316406 562.105469 360.316406 C 559.019531 360.316406 555.695312 361.503906 552.132812 363.882812 C 548.574219 366.257812 546.792969 369.035156 546.792969 372.210938 C 546.792969 373.71875 547.304688 375.113281 548.328125 376.394531 C 549.347656 377.679688 551.707031 379.207031 555.40625 380.984375 C 558.417969 382.382812 559.960938 383.566406 560.03125 384.535156 C 559.441406 385.324219 558.21875 385.988281 556.375 386.527344 C 554.523438 387.066406 552.757812 387.335938 551.070312 387.335938 C 550.40625 387.199219 549.746094 387.066406 549.082031 386.929688 C 548.550781 386.804688 548.019531 386.679688 547.492188 386.554688 C 546.648438 386.554688 545.886719 386.859375 545.207031 387.46875 C 544.523438 388.078125 544.183594 388.816406 544.183594 389.675781 C 544.183594 392.027344 545.804688 393.203125 549.054688 393.203125 C 553.464844 393.203125 557.445312 392.328125 560.988281 390.578125 C 564.53125 388.828125 566.304688 386.644531 566.304688 384.023438 C 566.304688 382.589844 565.808594 381.28125 564.824219 380.097656 C 563.835938 378.914062 561.789062 377.585938 558.6875 376.113281 "/>
<path style=" stroke:none;fill-rule:nonzero;fill:rgb(13.729858%,12.159729%,12.548828%);fill-opacity:1;" d="M 529.703125 352.460938 C 527.164062 354.414062 525.882812 355.921875 525.882812 356.980469 C 525.882812 357.625 526.089844 358.167969 526.503906 358.609375 C 526.914062 359.046875 527.46875 359.265625 528.171875 359.265625 C 528.414062 359.195312 528.65625 359.125 528.898438 359.050781 C 529.453125 358.65625 530.007812 358.261719 530.566406 357.867188 C 532.027344 356.792969 533.488281 355.714844 534.953125 354.640625 C 536.980469 353.113281 538.40625 352.171875 539.230469 351.8125 C 539.964844 351.453125 540.585938 350.972656 541.085938 350.371094 C 541.589844 349.773438 541.839844 349.273438 541.839844 348.878906 C 541.839844 348.429688 541.550781 347.769531 540.964844 346.890625 C 540.382812 346.011719 539.859375 345.570312 539.390625 345.570312 C 538.996094 345.570312 538.382812 345.839844 537.550781 346.378906 C 535.5625 347.910156 533.574219 349.445312 531.589844 350.980469 C 530.960938 351.472656 530.332031 351.964844 529.703125 352.460938 "/>
<path style=" stroke:none;fill-rule:nonzero;fill:rgb(13.729858%,12.159729%,12.548828%);fill-opacity:1;" d="M 514.367188 384.1875 C 513.855469 384.292969 513.34375 384.402344 512.832031 384.507812 C 512.355469 384.597656 511.882812 384.6875 511.40625 384.777344 C 510.472656 384.777344 509.648438 381.441406 508.929688 374.765625 C 508.210938 368.21875 505.773438 364.945312 501.609375 364.945312 C 496.820312 364.945312 492.480469 369.503906 488.585938 378.617188 C 489.609375 373.71875 490.117188 370.417969 490.117188 368.710938 C 490.117188 366.46875 489.84375 365.089844 489.285156 364.570312 C 488.730469 364.046875 487.929688 363.789062 486.890625 363.789062 C 486.066406 363.789062 485.285156 364.269531 484.550781 365.226562 C 483.8125 366.1875 483.445312 367.089844 483.445312 367.933594 C 483.445312 373.53125 483.097656 378.265625 482.394531 382.140625 C 482.128906 384.058594 481.859375 385.980469 481.589844 387.902344 C 481.589844 390.394531 482.953125 391.640625 485.679688 391.640625 C 486.109375 391.640625 486.546875 391.417969 486.984375 390.96875 C 487.425781 390.519531 487.726562 389.953125 487.886719 389.273438 C 488.621094 386.996094 490.578125 383.464844 493.753906 378.683594 C 496.929688 373.902344 499.160156 371.511719 500.453125 371.511719 C 501.816406 371.511719 502.695312 373.808594 503.089844 378.402344 C 503.484375 382.816406 504.113281 385.828125 504.972656 387.441406 L 504.945312 387.441406 C 505.84375 389.253906 507.332031 390.160156 509.414062 390.160156 C 511.207031 390.160156 512.695312 389.644531 513.882812 388.613281 C 515.066406 387.582031 515.65625 386.609375 515.65625 385.695312 C 515.65625 384.6875 515.226562 384.1875 514.367188 384.1875 "/>
<path style=" stroke:none;fill-rule:nonzero;fill:rgb(13.729858%,12.159729%,12.548828%);fill-opacity:1;" d="M 449.363281 363.976562 C 448.207031 362.972656 446.710938 362.46875 444.882812 362.46875 C 442.496094 362.46875 440.050781 363.828125 437.550781 366.546875 C 435.046875 369.265625 432.710938 372.804688 430.539062 377.164062 C 430.386719 377.449219 430.234375 377.738281 430.082031 378.023438 C 430.304688 376.640625 430.53125 375.261719 430.753906 373.878906 C 430.996094 372.785156 431.238281 371.691406 431.480469 370.597656 C 432.289062 367.941406 432.691406 366.191406 432.691406 365.347656 C 432.691406 364.683594 432.441406 364.074219 431.941406 363.519531 C 431.4375 362.964844 430.703125 362.683594 429.734375 362.683594 C 428.816406 362.683594 427.984375 362.972656 427.230469 363.546875 C 426.476562 364.121094 425.996094 364.734375 425.789062 365.390625 C 425.605469 366.597656 425.421875 367.800781 425.238281 369.007812 C 425.175781 369.628906 425.113281 370.246094 425.050781 370.867188 C 424.84375 373.429688 424.636719 375.996094 424.429688 378.5625 C 424.394531 380.328125 424.359375 382.097656 424.324219 383.863281 C 424.324219 387.058594 424.582031 389.359375 425.105469 390.765625 C 425.625 392.175781 426.503906 392.878906 427.742188 392.878906 C 428.90625 392.878906 429.832031 392.578125 430.511719 391.976562 C 431.195312 391.375 431.632812 390.320312 431.832031 388.816406 C 432.476562 383.59375 434.378906 378.894531 437.535156 374.714844 C 440.695312 370.535156 442.945312 368.445312 444.289062 368.445312 C 444.667969 368.445312 445.179688 368.738281 445.824219 369.332031 C 446.738281 370.246094 447.753906 370.703125 448.867188 370.703125 C 449.566406 370.703125 450.113281 370.394531 450.507812 369.777344 C 450.902344 369.15625 451.097656 368.417969 451.097656 367.554688 C 451.097656 366.175781 450.519531 364.980469 449.363281 363.976562 "/>
<path style=" stroke:none;fill-rule:nonzero;fill:rgb(13.729858%,12.159729%,12.548828%);fill-opacity:1;" d="M 417.699219 364.167969 C 417.019531 363.59375 416.066406 363.308594 414.847656 363.308594 C 413.808594 363.308594 412.996094 363.757812 412.410156 364.652344 C 411.828125 365.550781 411.535156 366.664062 411.535156 367.992188 C 411.25 369.847656 410.964844 371.703125 410.675781 373.5625 C 410.515625 374.476562 410.351562 375.390625 410.191406 376.304688 C 409.332031 380.683594 408.898438 384.398438 408.898438 387.445312 C 408.898438 391.035156 410.082031 392.828125 412.453125 392.828125 C 413.347656 392.828125 414.1875 392.480469 414.96875 391.78125 C 415.75 391.082031 416.140625 390.523438 416.140625 390.113281 C 416.113281 389.84375 416.085938 389.574219 416.058594 389.304688 C 415.871094 387.839844 415.683594 386.378906 415.492188 384.917969 C 415.59375 383.152344 415.691406 381.382812 415.789062 379.617188 C 415.984375 377.425781 416.578125 374.601562 417.566406 371.140625 C 418.390625 368.304688 418.722656 366.824219 418.722656 366.109375 C 418.722656 365.390625 418.382812 364.742188 417.699219 364.167969 "/>
<path style=" stroke:none;fill-rule:nonzero;fill:rgb(13.729858%,12.159729%,12.548828%);fill-opacity:1;" d="M 416.957031 347.804688 C 415.414062 347.804688 414.230469 348.203125 413.40625 349 C 412.578125 349.800781 412.167969 350.84375 412.167969 352.136719 C 412.167969 353.035156 412.582031 353.929688 413.417969 354.828125 C 414.25 355.722656 415.207031 356.171875 416.285156 356.171875 C 417.125 356.171875 418.121094 355.691406 419.269531 354.734375 C 420.417969 353.773438 420.992188 352.65625 420.992188 351.382812 C 420.992188 350.414062 420.621094 349.574219 419.875 348.867188 C 419.132812 348.15625 418.160156 347.804688 416.957031 347.804688 "/>
<path style=" stroke:none;fill-rule:nonzero;fill:rgb(13.729858%,12.159729%,12.548828%);fill-opacity:1;" d="M 467.191406 383.082031 C 464.789062 385.71875 462.472656 387.039062 460.25 387.039062 C 459.351562 387.039062 458.628906 386.554688 458.082031 385.585938 C 457.535156 384.617188 457.261719 383.386719 457.261719 381.898438 C 457.261719 379.441406 457.863281 376.992188 459.066406 374.550781 C 460.265625 372.113281 461.496094 370.335938 462.75 369.222656 L 462.777344 369.222656 C 463.835938 368.308594 465.03125 367.851562 466.359375 367.851562 C 467.757812 367.851562 468.847656 368.449219 469.628906 369.640625 C 470.40625 370.835938 470.796875 372.355469 470.796875 374.203125 C 470.796875 377.484375 469.59375 380.445312 467.191406 383.082031 M 466.894531 362.175781 C 462.394531 362.175781 458.5625 364.417969 455.40625 368.902344 C 452.246094 373.386719 450.667969 377.941406 450.667969 382.570312 C 450.667969 385.40625 451.53125 387.796875 453.253906 389.742188 C 454.976562 391.691406 457.164062 392.664062 459.820312 392.664062 C 463.171875 392.664062 466.53125 391.222656 469.894531 388.34375 C 473.257812 385.464844 475.542969 381.925781 476.746094 377.726562 L 476.746094 377.703125 C 477.050781 376.390625 477.203125 375.054688 477.203125 373.691406 C 477.203125 370.550781 476.25 367.847656 474.351562 365.578125 C 472.449219 363.308594 469.964844 362.175781 466.894531 362.175781 "/>
<path style=" stroke:none;fill-rule:nonzero;fill:rgb(13.729858%,12.159729%,12.548828%);fill-opacity:1;" d="M 528.574219 370.03125 C 530.476562 367.734375 532.207031 366.585938 533.769531 366.585938 C 534.289062 366.585938 534.714844 366.789062 535.046875 367.191406 C 535.378906 367.597656 535.542969 368.09375 535.542969 368.6875 C 535.542969 370.191406 534.464844 371.871094 532.300781 373.71875 C 530.140625 375.566406 527.640625 376.777344 524.804688 377.351562 C 525.417969 374.769531 526.671875 372.328125 528.574219 370.03125 M 541.25 380.3125 C 540.605469 380.3125 539.941406 380.671875 539.257812 381.386719 C 535.707031 385.101562 532.125 386.957031 528.519531 386.957031 C 527.246094 386.957031 526.230469 386.566406 525.464844 385.789062 C 524.703125 385.007812 524.324219 384.1875 524.324219 383.324219 C 524.324219 382.804688 524.589844 382.480469 525.128906 382.355469 C 529.8125 381.28125 533.652344 379.328125 536.648438 376.503906 C 539.644531 373.675781 541.140625 370.703125 541.140625 367.582031 C 541.140625 365.824219 540.53125 364.308594 539.3125 363.035156 C 538.089844 361.761719 536.476562 361.125 534.46875 361.125 C 530.429688 361.125 526.636719 363.320312 523.085938 367.71875 C 519.53125 372.113281 517.757812 376.824219 517.757812 381.84375 C 517.757812 385.253906 518.625 387.914062 520.367188 389.824219 C 522.105469 391.734375 524.492188 392.691406 527.527344 392.691406 C 531.472656 392.691406 535.015625 391.394531 538.15625 388.800781 C 541.292969 386.210938 542.863281 383.980469 542.863281 382.113281 C 542.863281 380.914062 542.324219 380.3125 541.25 380.3125 "/>
<path style=" stroke:none;fill-rule:nonzero;fill:rgb(13.729858%,12.159729%,12.548828%);fill-opacity:1;" d="M 410.175781 242.386719 C 410.40625 240.84375 410.589844 239.304688 410.613281 237.742188 C 410.625 237.015625 410.601562 236.300781 410.488281 235.582031 C 410.394531 235.007812 410.269531 234.472656 409.972656 233.960938 C 409.484375 233.109375 408.71875 232.863281 407.816406 233.238281 C 406.75 233.683594 405.890625 234.757812 405.3125 235.664062 C 404.515625 236.914062 403.992188 238.238281 403.566406 239.640625 C 402.882812 241.898438 402.535156 244.207031 402.140625 246.511719 C 401.859375 248.144531 401.585938 249.78125 401.3125 251.417969 C 401.117188 252.582031 400.898438 253.742188 400.714844 254.910156 C 400.566406 255.855469 400.464844 256.808594 400.339844 257.757812 C 400.1875 258.914062 400.003906 260.0625 399.824219 261.210938 C 399.4375 263.667969 399.089844 266.125 398.8125 268.597656 C 398.492188 271.4375 398.339844 273.171875 398.1875 276.027344 C 398.011719 279.335938 398 280.175781 398.160156 283.484375 C 398.21875 284.644531 398.28125 286.050781 398.902344 287.128906 C 399.535156 288.238281 400.683594 288.882812 401.976562 288.746094 C 403.261719 288.609375 404.320312 287.734375 404.824219 286.578125 C 405.332031 285.421875 405.257812 284.113281 405.148438 282.9375 C 405.027344 281.699219 404.871094 280.464844 404.789062 279.222656 C 404.707031 277.980469 404.660156 276.738281 404.652344 275.492188 C 404.632812 273 404.859375 270.535156 405.125 268.058594 C 405.386719 265.589844 405.722656 263.132812 406.191406 260.6875 C 406.410156 259.542969 406.65625 258.40625 406.929688 257.269531 C 407.1875 256.207031 407.464844 255.148438 407.714844 254.082031 C 407.964844 252.996094 408.207031 251.90625 408.464844 250.820312 C 408.832031 249.269531 409.199219 247.722656 409.511719 246.160156 C 409.761719 244.90625 409.984375 243.652344 410.175781 242.386719 "/>
<path style=" stroke:none;fill-rule:nonzero;fill:rgb(13.729858%,12.159729%,12.548828%);fill-opacity:1;" d="M 518.515625 268.707031 C 521.414062 264.695312 523.769531 262.691406 525.582031 262.691406 C 526.082031 262.691406 526.535156 262.957031 526.941406 263.484375 C 527.34375 264.015625 527.546875 264.726562 527.546875 265.625 C 527.546875 268.441406 526 271.730469 522.90625 275.488281 C 519.808594 279.246094 517.203125 281.125 515.085938 281.125 C 514.476562 281.125 514.171875 280.390625 514.171875 278.917969 C 514.171875 276.121094 515.621094 272.714844 518.515625 268.707031 M 513.527344 286.964844 C 517.921875 286.964844 522.476562 283.851562 527.195312 277.628906 C 526.855469 284.390625 528.371094 287.773438 531.746094 287.773438 C 532.75 287.773438 533.714844 287.46875 534.636719 286.855469 C 535.558594 286.246094 536.023438 285.484375 536.023438 284.570312 C 536.023438 283.960938 535.664062 283.484375 534.945312 283.144531 C 534.226562 282.820312 533.796875 282.515625 533.65625 282.230469 C 533.425781 281.617188 533.199219 281.007812 532.96875 280.398438 C 532.65625 279.464844 532.496094 277.851562 532.496094 275.554688 C 532.496094 273.347656 532.855469 270.398438 533.574219 266.699219 C 533.773438 265.339844 533.96875 263.972656 534.167969 262.609375 C 534.167969 261.03125 533.132812 260.242188 531.070312 260.242188 C 530.390625 258.035156 528.953125 256.933594 526.765625 256.933594 C 522.460938 256.933594 518.191406 259.617188 513.957031 264.992188 C 509.722656 270.363281 507.605469 275.429688 507.605469 280.183594 C 507.605469 282.15625 508.1875 283.78125 509.355469 285.054688 C 510.519531 286.328125 511.910156 286.964844 513.527344 286.964844 "/>
<path style=" stroke:none;fill-rule:nonzero;fill:rgb(13.729858%,12.159729%,12.548828%);fill-opacity:1;" d="M 488.875 288.121094 C 492.355469 288.121094 495.679688 287.015625 498.84375 284.800781 C 502.011719 282.582031 503.59375 280.785156 503.59375 279.402344 C 503.59375 278.414062 503.101562 277.921875 502.117188 277.921875 C 501.308594 277.921875 500.214844 278.414062 498.832031 279.402344 C 495.890625 281.449219 492.976562 282.472656 490.085938 282.472656 C 487.46875 282.472656 486.15625 281.261719 486.15625 278.839844 C 486.15625 275.84375 487.304688 272.351562 489.601562 268.371094 C 491.898438 264.386719 493.746094 262.394531 495.144531 262.394531 C 495.808594 262.394531 496.25 263.273438 496.464844 265.03125 C 496.75 267.4375 497.765625 268.640625 499.503906 268.640625 C 500.097656 268.640625 500.710938 268.339844 501.347656 267.738281 C 501.984375 267.136719 502.304688 265.976562 502.304688 264.253906 C 502.304688 262.421875 501.703125 260.660156 500.5 258.964844 C 499.300781 257.269531 497.84375 256.421875 496.140625 256.421875 C 492.609375 256.421875 489 259.050781 485.324219 264.304688 C 481.644531 269.5625 479.808594 274.449219 479.808594 278.972656 C 479.808594 281.84375 480.578125 284.085938 482.121094 285.699219 C 483.664062 287.316406 485.914062 288.121094 488.875 288.121094 "/>
<path style=" stroke:none;fill-rule:nonzero;fill:rgb(13.729858%,12.159729%,12.548828%);fill-opacity:1;" d="M 478.90625 244.136719 C 478.160156 243.429688 477.1875 243.074219 475.984375 243.074219 C 474.441406 243.074219 473.257812 243.472656 472.433594 244.273438 C 471.609375 245.070312 471.195312 246.113281 471.195312 247.40625 C 471.195312 248.304688 471.613281 249.199219 472.449219 250.097656 C 473.28125 250.996094 474.238281 251.441406 475.3125 251.441406 C 476.15625 251.441406 477.152344 250.964844 478.300781 250.003906 C 479.449219 249.042969 480.023438 247.925781 480.023438 246.652344 C 480.023438 245.683594 479.652344 244.847656 478.90625 244.136719 "/>
<path style=" stroke:none;fill-rule:nonzero;fill:rgb(13.729858%,12.159729%,12.548828%);fill-opacity:1;" d="M 418.34375 254.363281 C 418.757812 254.804688 419.3125 255.023438 420.011719 255.023438 C 420.253906 254.949219 420.496094 254.878906 420.738281 254.808594 C 421.292969 254.410156 421.851562 254.019531 422.40625 253.621094 C 423.871094 252.546875 425.332031 251.46875 426.792969 250.394531 C 428.820312 248.867188 430.246094 247.925781 431.074219 247.566406 C 431.808594 247.207031 432.425781 246.730469 432.929688 246.128906 C 433.433594 245.527344 433.683594 245.03125 433.683594 244.636719 C 433.683594 244.1875 433.390625 243.523438 432.808594 242.644531 C 432.226562 241.765625 431.699219 241.324219 431.234375 241.324219 C 430.839844 241.324219 430.226562 241.59375 429.390625 242.132812 C 427.402344 243.664062 425.417969 245.199219 423.429688 246.734375 C 422.800781 247.226562 422.175781 247.722656 421.546875 248.214844 C 419.007812 250.167969 417.726562 251.675781 417.726562 252.734375 C 417.726562 253.378906 417.929688 253.921875 418.34375 254.363281 "/>
<path style=" stroke:none;fill-rule:nonzero;fill:rgb(13.729858%,12.159729%,12.548828%);fill-opacity:1;" d="M 421.761719 259.382812 C 421.078125 258.808594 420.128906 258.519531 418.910156 258.519531 C 417.867188 258.519531 417.054688 258.96875 416.472656 259.867188 C 415.890625 260.761719 415.597656 261.875 415.597656 263.203125 C 415.3125 265.058594 415.023438 266.917969 414.738281 268.773438 C 414.578125 269.6875 414.414062 270.601562 414.253906 271.519531 C 413.390625 275.894531 412.960938 279.609375 412.960938 282.660156 C 412.960938 286.246094 414.144531 288.039062 416.511719 288.039062 C 417.410156 288.039062 418.25 287.691406 419.03125 286.992188 C 419.808594 286.292969 420.199219 285.734375 420.199219 285.324219 C 420.171875 285.054688 420.148438 284.785156 420.121094 284.515625 C 419.929688 283.054688 419.742188 281.59375 419.554688 280.128906 C 419.652344 278.363281 419.753906 276.597656 419.851562 274.828125 C 420.046875 272.640625 420.640625 269.8125 421.625 266.351562 C 422.453125 263.515625 422.785156 262.035156 422.785156 261.320312 C 422.785156 260.601562 422.445312 259.957031 421.761719 259.382812 "/>
<path style=" stroke:none;fill-rule:nonzero;fill:rgb(13.729858%,12.159729%,12.548828%);fill-opacity:1;" d="M 430.855469 260.5 C 430.121094 261.457031 429.753906 262.359375 429.753906 263.203125 C 429.753906 268.800781 429.402344 273.535156 428.703125 277.410156 C 428.433594 279.332031 428.167969 281.25 427.898438 283.171875 C 427.898438 285.664062 429.261719 286.910156 431.988281 286.910156 C 432.417969 286.910156 432.851562 286.6875 433.292969 286.238281 C 433.730469 285.789062 434.03125 285.222656 434.195312 284.542969 C 434.929688 282.265625 436.886719 278.734375 440.058594 273.953125 C 443.234375 269.171875 445.46875 266.78125 446.761719 266.78125 C 448.125 266.78125 449.003906 269.078125 449.398438 273.671875 C 449.792969 278.085938 450.421875 281.097656 451.28125 282.714844 L 451.253906 282.714844 C 452.152344 284.527344 453.640625 285.429688 455.722656 285.429688 C 457.515625 285.429688 459.003906 284.914062 460.191406 283.882812 C 461.375 282.851562 461.964844 281.878906 461.964844 280.964844 C 461.964844 279.960938 461.535156 279.457031 460.675781 279.457031 C 460.160156 279.5625 459.652344 279.671875 459.140625 279.78125 C 458.664062 279.871094 458.1875 279.960938 457.714844 280.050781 C 456.78125 280.050781 455.957031 276.710938 455.238281 270.039062 C 454.519531 263.492188 452.082031 260.214844 447.917969 260.214844 C 443.128906 260.214844 438.785156 264.773438 434.894531 273.886719 C 435.917969 268.988281 436.425781 265.6875 436.425781 263.984375 C 436.425781 261.742188 436.148438 260.359375 435.59375 259.839844 C 435.035156 259.320312 434.238281 259.058594 433.199219 259.058594 C 432.375 259.058594 431.59375 259.539062 430.855469 260.5 "/>
<path style=" stroke:none;fill-rule:nonzero;fill:rgb(13.729858%,12.159729%,12.548828%);fill-opacity:1;" d="M 468.800781 288.042969 C 469.699219 288.042969 470.535156 287.691406 471.316406 286.992188 C 472.097656 286.292969 472.488281 285.734375 472.488281 285.324219 C 472.460938 285.054688 472.433594 284.785156 472.40625 284.515625 C 472.21875 283.054688 472.03125 281.589844 471.84375 280.128906 C 471.941406 278.363281 472.039062 276.59375 472.136719 274.828125 C 472.335938 272.640625 472.925781 269.8125 473.914062 266.351562 C 474.738281 263.515625 475.070312 262.039062 475.070312 261.320312 C 475.070312 260.601562 474.730469 259.957031 474.046875 259.382812 C 473.367188 258.808594 472.414062 258.519531 471.195312 258.519531 C 470.15625 258.519531 469.34375 258.96875 468.761719 259.867188 C 468.175781 260.761719 467.886719 261.875 467.886719 263.203125 C 467.597656 265.058594 467.3125 266.917969 467.023438 268.773438 C 466.863281 269.6875 466.703125 270.601562 466.539062 271.519531 C 465.679688 275.894531 465.25 279.609375 465.25 282.660156 C 465.25 286.246094 466.433594 288.042969 468.800781 288.042969 "/>
<path style=" stroke:none;fill-rule:nonzero;fill:rgb(13.729858%,12.159729%,12.548828%);fill-opacity:1;" d="M 383.484375 358.152344 C 380.441406 357.71875 377.398438 357.617188 374.335938 357.535156 C 373.03125 357.503906 371.722656 357.472656 370.417969 357.429688 C 369.222656 357.394531 368.027344 357.347656 366.832031 357.3125 C 364.859375 357.257812 362.511719 357.203125 360.542969 357.625 C 359.046875 357.945312 357.425781 358.613281 356.589844 360.078125 C 355.71875 361.59375 356.074219 363.335938 357.140625 364.617188 C 358.570312 366.339844 360.890625 367.003906 362.929688 367.25 C 365.65625 367.578125 368.296875 367.261719 370.980469 367.003906 C 373.671875 366.746094 376.289062 366.53125 379.003906 367.054688 C 381.683594 367.574219 384.21875 368.796875 386.109375 370.835938 C 388.253906 373.144531 389.125 375.996094 389.027344 379.078125 C 388.914062 382.734375 387.457031 386.464844 385.9375 389.65625 C 384.371094 392.941406 382.128906 396.839844 380.21875 399.929688 C 377.328125 404.609375 374.125 409.210938 369.851562 412.847656 C 365.5 416.550781 360.277344 419.042969 354.410156 419.199219 C 348.640625 419.355469 343.167969 417.21875 338.640625 413.855469 C 334.046875 410.441406 330.605469 405.933594 328.042969 400.902344 C 325.542969 396.003906 323.730469 390.308594 322.578125 384.964844 C 321.375 379.390625 320.820312 373.890625 321.066406 368.179688 C 321.300781 362.726562 322.296875 356.828125 323.75 351.574219 C 325.277344 346.046875 327.394531 341.027344 330.675781 336.277344 C 333.65625 331.960938 338.34375 326.847656 343.1875 324.375 C 345.578125 323.15625 347.890625 322.617188 350.582031 322.730469 C 353.703125 322.863281 356.917969 323.867188 359.804688 324.878906 C 363.320312 326.109375 366.761719 327.546875 370.300781 328.71875 C 371.761719 329.203125 373.222656 329.648438 374.75 329.90625 C 375.320312 330.003906 375.886719 330.074219 376.464844 330.070312 C 376.902344 330.070312 377.320312 330.035156 377.742188 329.890625 C 379.636719 329.230469 378.617188 326.953125 377.941406 325.75 C 377.230469 324.492188 376.359375 323.382812 375.410156 322.304688 C 374.292969 321.039062 373.089844 319.882812 371.800781 318.796875 C 376.875 317.050781 382.359375 314.917969 386.351562 310.917969 C 388.265625 309.003906 389.957031 306.519531 390.601562 303.804688 C 390.851562 302.746094 390.957031 301.574219 390.714844 300.488281 C 390.515625 299.585938 390.078125 298.765625 389.3125 298.199219 C 388.496094 297.59375 387.488281 297.40625 386.515625 297.410156 C 385.210938 297.414062 383.855469 297.757812 382.640625 298.167969 C 379.59375 299.199219 376.234375 301.089844 373.472656 302.660156 C 368.425781 305.53125 363.597656 308.496094 357.738281 309.800781 C 352.582031 310.953125 346.378906 310.878906 341.226562 309.828125 C 335.839844 308.726562 330.871094 306.445312 326.605469 302.945312 C 322.296875 299.410156 319.175781 294.988281 316.644531 290.121094 C 315.382812 287.6875 314.296875 285.203125 313.390625 282.617188 C 312.488281 280.039062 311.808594 277.425781 311.339844 274.734375 C 310.429688 269.488281 310.300781 263.640625 310.496094 258.355469 C 310.695312 252.863281 311.261719 247.46875 312.382812 242.078125 C 313.507812 236.664062 315.144531 231.539062 317.542969 226.539062 C 319.894531 221.636719 322.949219 216.972656 326.691406 213 C 330.414062 209.046875 334.824219 205.785156 339.769531 203.511719 C 344.785156 201.207031 350.039062 200.085938 355.523438 199.898438 C 360.996094 199.710938 365.632812 200.4375 370.878906 201.882812 C 373.527344 202.617188 376.148438 203.441406 378.761719 204.300781 C 381.71875 205.277344 384.648438 206.328125 387.550781 207.460938 C 389.34375 208.160156 391.125 208.894531 392.929688 209.574219 C 394.464844 210.152344 395.992188 210.695312 397.621094 210.988281 C 400.082031 211.429688 402.433594 211.136719 404.238281 209.132812 C 405.644531 207.574219 406.359375 205.308594 405.933594 203.214844 C 405.476562 200.972656 403.828125 199.347656 402.15625 198.074219 C 400.238281 196.609375 397.5625 195.117188 395.4375 194.007812 C 393.050781 192.765625 390.625 191.644531 388.082031 190.738281 C 382.320312 188.6875 375.578125 187.636719 369.558594 187.042969 C 364.335938 186.523438 358.601562 186.277344 353.347656 186.484375 C 347.796875 186.699219 342.460938 187.429688 337.125 189.074219 C 326.519531 192.339844 317.214844 198.683594 310.085938 207.121094 C 302.976562 215.53125 298.226562 225.671875 295.671875 236.285156 C 293.109375 246.925781 292.746094 258.085938 294.710938 268.863281 C 295.699219 274.296875 297.242188 279.464844 299.40625 284.546875 C 301.574219 289.628906 304.207031 294.320312 307.492188 298.769531 C 313.640625 307.089844 322.890625 315.277344 332.660156 319.304688 C 327.996094 322.507812 324.203125 326.988281 321 331.511719 C 317.78125 336.054688 314.945312 340.964844 312.957031 346.199219 C 310.917969 351.558594 309.816406 356.96875 309.269531 362.648438 C 308.722656 368.292969 308.765625 373.839844 309.433594 379.472656 C 310.089844 385.007812 311.371094 390.632812 313.15625 395.910156 C 314.945312 401.214844 317.316406 406.402344 320.546875 411.019531 C 327.109375 420.402344 336.839844 426.832031 348.421875 428.148438 C 354.003906 428.785156 359.875 428.214844 365.210938 426.398438 C 370.671875 424.535156 375.113281 421.546875 379.171875 417.519531 C 383.171875 413.558594 386.964844 408.40625 389.789062 403.570312 C 392.640625 398.683594 394.558594 394.066406 396.160156 388.652344 C 397.097656 385.480469 397.984375 381.84375 398.46875 378.566406 C 398.945312 375.328125 399.167969 371.664062 398.261719 368.40625 C 396.292969 361.335938 389.6875 359.035156 383.484375 358.152344 "/>
</g>
</svg>
